<?xml version="1.0" encoding="UTF-8" standalone="no"?><!DOCTYPE svg PUBLIC "-//W3C//DTD SVG 1.1//EN" "http://www.w3.org/Graphics/SVG/1.1/DTD/svg11.dtd"><svg width="100%" height="100%" viewBox="0 0 16114 3152" version="1.1" xmlns="http://www.w3.org/2000/svg" xmlns:xlink="http://www.w3.org/1999/xlink" xml:space="preserve" xmlns:serif="http://www.serif.com/" style="fill-rule:evenodd;clip-rule:evenodd;stroke-linejoin:round;stroke-miterlimit:2;"><rect id="Artboard2" x="-301.42" y="-13015.93" width="17007.87" height="60389.76" style="fill:none;"/><g><path d="M376.46,702.98c36.25,-38.17 58.55,-89.67 58.55,-146.44c0,-117.55 -95.44,-212.84 -213.18,-212.84c-117.76,0 -213.2,95.29 -213.2,212.84c0,53.99 20.17,103.24 53.33,140.78l148.81,174.59l165.68,-168.93Z" style="fill:#013042;fill-rule:nonzero;"/><path d="M221.82,527.24c15.13,0 27.39,-12.26 27.39,-27.39c0,-15.13 -12.26,-27.39 -27.39,-27.39c-15.13,0 -27.39,12.26 -27.39,27.39c0,15.13 12.26,27.39 27.39,27.39Z" style="fill:#fff;fill-rule:nonzero;"/><path d="M244.89,653.87l0,-99.91c0,-2.68 -2.18,-4.86 -4.86,-4.86l-46.76,0c-2.68,0 -4.86,2.18 -4.86,4.86l0,9.02c0,2.68 2.18,4.86 4.86,4.86l5.48,0l0,86.02l-5.48,0c-2.68,0 -4.86,2.18 -4.86,4.86l0,9.02c0,2.68 2.18,4.86 4.86,4.86l57.1,0c2.68,0 4.86,-2.18 4.86,-4.86l0,-9.02c0,-2.68 -2.18,-4.86 -4.86,-4.86l-5.48,0Z" style="fill:#fff;fill-rule:nonzero;"/><path d="M8025.86,702.69c36.25,-38.17 58.55,-89.67 58.55,-146.44c0,-117.55 -95.44,-212.84 -213.18,-212.84c-117.76,0 -213.2,95.29 -213.2,212.84c0,53.99 20.17,103.24 53.33,140.78l148.81,174.59l165.68,-168.93Z" style="fill:#b6936a;fill-rule:nonzero;"/><path d="M7807.49,687.33l0,-215.61l87.49,0c37.33,0 67.69,30.37 67.69,67.69c0,37.33 -30.37,67.69 -67.69,67.69l-50.84,0l0,80.22l-36.65,0Zm36.65,-116.87l50.84,0c17.12,0 31.05,-13.93 31.05,-31.05c0,-17.12 -13.93,-31.05 -31.05,-31.05l-50.84,0l0,62.09Z" style="fill:#fff;"/><path d="M2792.28,702.98c36.25,-38.17 58.55,-89.67 58.55,-146.44c0,-117.55 -95.44,-212.84 -213.18,-212.84c-117.76,0 -213.2,95.29 -213.2,212.84c0,53.99 20.17,103.24 53.33,140.78l148.81,174.59l165.68,-168.93Z" style="fill:#013042;fill-rule:nonzero;"/><path d="M2640.49,561.18c10.65,0 21.31,-0.15 31.92,0.07c4.43,0.08 5.3,-1.28 3.74,-5.31c-5.39,-13.98 -10.5,-28.08 -15.94,-42.04c-2.34,-5.96 -2.56,-13.98 -7.76,-17.24c-5.33,-3.33 -12.99,-0.76 -19.59,-1.04c-0.39,-0.02 -0.77,0.03 -1.14,0c-2.95,-0.22 -4.44,1.33 -5.44,3.97c-7.07,19.04 -14.14,38.07 -21.44,57.03c-1.72,4.44 0.17,4.65 3.72,4.62c10.62,-0.13 21.27,-0.05 31.92,-0.05m-125.9,0.37c18.07,-0.1 36.15,-0.47 54.21,-0.22c5.49,0.07 8.06,-1.7 9.88,-6.86c6.24,-17.53 13.03,-34.9 19.57,-52.32c2.31,-6.13 2.09,-6.5 -4.33,-6.54c-9.31,-0.05 -18.65,-0.13 -27.97,0.02c-4.07,0.08 -5.91,-1.36 -5.84,-5.6c0.32,-19.31 -2.51,-16.23 15.62,-16.3c47.41,-0.13 94.8,-0.05 142.19,-0.03c8.15,0 8.23,0.05 8.18,8.33c-0.1,15.39 1.63,13.41 -13.23,13.54c-7.24,0.07 -14.47,0.1 -21.69,0c-3.74,-0.05 -5.4,0.86 -3.82,4.99c7.2,18.82 14.29,37.65 21.26,56.56c1.35,3.65 3.79,4.12 7.12,4.1c16.36,-0.1 32.73,-0.07 49.11,-0.03c2.26,0.02 4.54,0.25 6.82,0.35l0,20.55c-15.03,0.99 -30.06,0.18 -45.08,0.44c-6.19,0.1 -6.34,0.25 -3.97,6.05c8.11,19.88 16.27,39.76 24.37,59.65c2.69,6.6 2.52,6.82 -4.81,6.89c-4.39,0.05 -8.82,-0.45 -13.13,0.12c-7,0.91 -10.06,-2.39 -12.45,-8.52c-7.67,-19.66 -16,-39.05 -23.78,-58.66c-1.67,-4.25 -3.94,-5.65 -8.45,-5.61c-27.4,0.18 -54.81,0.17 -82.24,0.02c-4.24,-0.03 -6.46,1.29 -8.06,5.29c-7.94,19.96 -16.43,39.69 -24.18,59.72c-2.32,5.98 -5.55,8.42 -11.85,7.75c-4.14,-0.45 -8.36,-0.08 -12.55,-0.08c-8.43,-0.02 -8.5,-0.12 -5.42,-7.68c7.99,-19.52 16,-39.03 24,-58.57c2.59,-6.33 2.57,-6.27 -4.38,-6.35c-15.01,-0.24 -30.06,0.55 -45.07,-0.44l0,-20.55Z" style="fill:#fff;fill-rule:nonzero;"/><path d="M2794.18,1480.83c36.25,-38.17 58.55,-89.67 58.55,-146.44c0,-117.55 -95.44,-212.84 -213.18,-212.84c-117.76,0 -213.2,95.29 -213.2,212.84c0,53.99 20.17,103.24 53.33,140.78l148.81,174.59l165.68,-168.93Z" style="fill:#013042;fill-rule:nonzero;"/><path d="M2754.16,1289.07c7.24,15.47 11.28,32.73 11.28,50.93c0,66.49 -53.98,120.47 -120.47,120.47c-66.49,0 -120.47,-53.98 -120.47,-120.47c0,-66.49 53.98,-120.47 120.47,-120.47c35.06,0 66.63,15.01 88.66,38.94l-101.15,101.15l-32.01,-32.01c-6.98,-6.98 -18.23,-7.05 -25.31,-0.24c-7.3,7.02 -7.13,18.92 0.03,26.09l45.69,45.68c6.41,6.41 16.79,6.41 23.19,0l110.08,-110.08Z" style="fill:#fff;"/><path d="M372.84,1477.29c35.9,-37.79 57.97,-88.79 57.97,-145c0,-116.39 -94.5,-210.75 -211.08,-210.75c-116.6,0 -211.1,94.35 -211.1,210.75c0,53.46 19.97,102.22 52.81,139.4l147.35,172.87l164.05,-167.27Z" style="fill:#013042;fill-rule:nonzero;"/><path d="M111.58,1280.06c0.37,-3.3 0.48,-7.12 4.44,-9c4.25,-2.03 6.7,1.21 9.2,3.51c54.69,50.59 109.38,101.21 164.03,151.83c6.44,5.97 6.33,7.51 -0.44,13.58c-6.15,5.51 -7.9,5.51 -14.29,-0.36c-26.21,-23.99 -52.46,-47.94 -78.5,-72.09c-4.41,-4.1 -7.83,-6.28 -12.76,-0.78c-2.87,3.23 -6.52,2.64 -9.38,-0.33c-21.68,-22.42 -43.45,-44.81 -58,-72.05c-2.37,-4.4 -3.83,-9.11 -4.31,-14.31" style="fill:#fff;fill-rule:nonzero;"/><path d="M283.28,1325.3c2.83,-0.44 4.36,-2.25 6.04,-3.81c8.95,-8.13 17.84,-16.29 26.75,-24.44c2.78,-2.53 5.85,-5.7 9.87,-2.49c4,3.23 0.86,6.5 -1.34,9.37c-8.78,11.43 -17.84,22.69 -26.42,34.24c-7.88,10.63 -18.71,15.99 -32.5,15.79c-11.53,-0.18 -21.59,2 -28.95,10.8c-2.49,2.96 -5.15,2.86 -7.77,0.06c-0.15,-0.16 -0.34,-0.31 -0.52,-0.46c-10.4,-8.63 -10.45,-8.69 -1,-18.01c3.65,-3.6 5.46,-7.79 5.85,-12.59c0.37,-4.43 0.58,-8.86 0.95,-13.28c0.84,-10.17 5.96,-18.16 14.94,-24.04c13.18,-8.66 26.42,-17.24 39.66,-25.83c3.23,-2.1 6.85,-4.52 10.17,-0.7c3.05,3.51 -0.21,6.18 -2.76,8.55c-8.35,7.72 -16.76,15.39 -25.14,23.07c-1.37,1.26 -2.78,2.49 -4.04,3.84c-1.66,1.76 -3.07,3.79 -0.6,5.81c2.07,1.66 4.13,0.61 5.81,-0.81c2.33,-1.95 4.54,-4 6.77,-6.04c7.9,-7.2 15.79,-14.4 23.65,-21.62c3.18,-2.93 6.57,-3.97 10.06,-0.67c3.26,3.1 1.94,6.09 -0.94,8.74c-8.91,8.16 -17.86,16.28 -26.75,24.44c-1.7,1.57 -3.57,3.12 -4.71,5.01c-1.68,2.83 -0.32,4.64 2.92,5.08" style="fill:#fff;fill-rule:nonzero;"/><path d="M210.5,1388.11c-1.03,1.21 -1.95,2.52 -3.12,3.6c-17.08,15.7 -34.23,31.29 -51.25,47.05c-5.1,4.71 -8.8,2.43 -12.82,-1.29c-4.05,-3.76 -7.4,-7.2 -1.84,-12.25c17.15,-15.61 34.25,-31.28 51.2,-47.1c3.47,-3.26 5.99,-2.77 8.86,0.31c2.94,3.17 7.04,5.44 8.96,9.67" style="fill:#fff;fill-rule:nonzero;"/><path d="M8022.24,1477c35.9,-37.79 57.97,-88.79 57.97,-145c0,-116.39 -94.5,-210.75 -211.08,-210.75c-116.6,0 -211.1,94.35 -211.1,210.75c0,53.46 19.97,102.22 52.81,139.4l147.35,172.87l164.05,-167.27Z" style="fill:#b6936a;fill-rule:nonzero;"/><path d="M7970.57,1382.1c-1.89,5.01 -4.98,7.17 -10.34,7.19c-1.83,0.01 -3.69,0.11 -5.53,-0.01c-1.74,-0.13 -2.25,0.52 -2.24,2.25c0.06,10.86 0.03,21.71 0.03,32.57c0,1.19 -0.07,2.35 -0.34,3.53c-0.99,4.45 -4.58,7.46 -9.15,7.5c-6.07,0.06 -12.13,0.04 -18.2,0.01c-5.67,-0.03 -9.69,-4.01 -9.7,-9.73c-0.06,-10.79 -0.01,-21.59 -0.03,-32.38c0,-4.11 0.5,-3.71 -3.66,-3.72c-1.25,-0.01 -2.51,0 -3.76,-0.01c-6.82,-0.03 -10.76,-3.24 -10.95,-9.95c-0.28,-10.63 -0.88,-21.34 1.38,-31.85c2.25,-10.51 6.85,-19.71 15.9,-26.2c12,-8.6 29.81,-8.06 41.28,1.29c8.04,6.58 12.07,15.42 14.22,25.28c0.48,2.17 0.74,4.4 1.08,6.6l0,27.64Z" style="fill:#fff;fill-rule:nonzero;"/><path d="M7841.83,1398.06c-0.01,5.35 -3.97,9.36 -9.3,9.46c-3.36,0.07 -6.72,0.27 -10.07,0.27c-1.47,0 -2.07,0.59 -2.48,1.91c-1.91,6.09 -3.9,12.15 -5.89,18.2c-1.53,4.66 -4.88,7.25 -9.23,7.25c-4.31,0 -7.73,-2.68 -9.25,-7.28c-1.96,-6.05 -3.94,-12.12 -5.83,-18.21c-0.43,-1.36 -1.12,-1.87 -2.54,-1.87c-3.02,0 -6.07,-0.44 -9.06,-0.21c-6.3,0.48 -11.83,-5.03 -9.9,-12.64c3.6,-14.15 7.02,-28.32 10.55,-42.48c2.1,-8.4 4.2,-16.84 7.29,-24.95c0.44,-1.12 0.98,-2.17 1.47,-3.24c2.48,-5.32 6.54,-8.51 12.51,-8.89c3.94,-0.24 7.9,-0.41 11.81,0.4c4.77,0.98 7.94,3.89 10.03,8.16c3.77,7.67 5.77,15.94 7.87,24.14c3.97,15.48 7.69,30.98 11.53,46.49c0.28,1.16 0.48,2.32 0.48,3.51" style="fill:#fff;fill-rule:nonzero;"/><path d="M7878.87,1253.78l0,178.04c0,3.33 0,3.33 -3.36,3.33c-4.42,0.01 -8.84,-0.07 -13.26,0.04c-1.87,0.04 -2.52,-0.55 -2.52,-2.46c0.04,-15.86 0,-31.72 0,-47.56c0,-21.2 0.01,-42.38 0.03,-63.58c0,-22.76 0.01,-45.52 -0.03,-68.28c0,-1.91 0.62,-2.52 2.52,-2.48c4.54,0.11 9.09,0.03 13.63,0.03c2.98,0.01 2.99,0.01 2.99,2.93Z" style="fill:#fff;fill-rule:nonzero;"/><path d="M7804.88,1269.25c10.67,0.35 19.05,8.84 18.62,18.96c-0.43,10.86 -9.28,18.95 -20.14,18.18c-8.79,-0.62 -17.09,-7.86 -17.15,-18.82c-0.04,-10.08 8.91,-18.63 18.66,-18.32" style="fill:#fff;fill-rule:nonzero;"/><path d="M7933.77,1269.32c10.38,-0.08 18.62,8.23 18.61,18.52c-0.03,11.31 -8.91,18.63 -18.72,18.58c-10.23,-0.07 -18.62,-8.45 -18.55,-18.61c0.06,-10.22 8.41,-18.52 18.66,-18.49" style="fill:#fff;fill-rule:nonzero;"/><path d="M369.01,2234.38c35.52,-37.39 57.36,-87.85 57.36,-143.48c0,-115.17 -93.51,-208.53 -208.86,-208.53c-115.37,0 -208.88,93.36 -208.88,208.53c0,52.9 19.76,101.15 52.25,137.93l145.8,171.05l162.33,-165.51Z" style="fill:#013042;fill-rule:nonzero;"/><path d="M126.26,2060.77c-4.95,-0.48 -8.71,-2.92 -10.21,-7.89c-1.47,-4.83 -0.39,-9.22 3.9,-12.32c1.56,-1.14 3.43,-1.96 5.29,-2.66c30.03,-11.55 60.08,-23.05 90.13,-34.62c4.35,-1.68 8.47,-1.7 12.84,-0.03c30.02,11.6 60.08,23.1 90.13,34.63c0.82,0.31 1.62,0.65 2.43,1.02c6.26,2.93 8.89,8.71 6.68,14.58c-2.2,5.77 -8.23,8.74 -14.66,6.38c-18.2,-6.69 -36.3,-13.7 -54.42,-20.61c-10.52,-3.98 -21.05,-7.89 -31.47,-12.12c-3.53,-1.42 -6.56,-1.41 -10.1,-0.02c-26.51,10.3 -53.07,20.44 -79.64,30.57c-3.48,1.33 -6.9,2.98 -10.89,3.09" style="fill:#fff;fill-rule:nonzero;"/><path d="M259.19,2153.24c-12.56,0 -25.11,-0.15 -37.67,0.08c-5.13,0.09 -7.02,-1.79 -6.91,-6.93c0.26,-12.32 0.25,-24.66 0.02,-36.96c-0.11,-4.83 1.72,-6.81 6.5,-6.7c19.81,0.45 39.67,-0.96 59.45,0.86c15.88,1.48 22.76,8.2 24.16,24.15c0.56,6.33 0.2,12.74 0.36,19.12c0.12,4.79 -2.15,6.53 -6.88,6.45c-12.99,-0.19 -26,-0.06 -39,-0.06" style="fill:#fff;fill-rule:nonzero;"/><path d="M303.15,2187.74l-163.37,0c-1.99,0 -3.99,0.09 -5.95,-0.15c-5.69,-0.68 -10.05,-5.02 -10.13,-10.42c-0.09,-5.68 2.69,-9.8 8.23,-11.32c3.14,-0.86 6.54,-0.96 9.82,-0.96c53.35,-0.05 106.72,-0.05 160.07,-0.02c2.85,0 5.75,0.08 8.55,0.63c6,1.19 9.88,6.11 9.57,11.64c-0.32,5.62 -4.73,9.96 -10.86,10.5c-1.95,0.19 -3.94,0.09 -5.94,0.09Z" style="fill:#fff;fill-rule:nonzero;"/><path d="M208.64,2117.66c0,7.47 0.22,14.96 -0.05,22.43c-0.28,8.54 -4.78,13 -13.31,13.09c-15,0.19 -29.99,0.19 -44.96,0c-7.73,-0.09 -12.74,-4.86 -12.76,-11.43c0,-6.55 5.03,-11.27 12.76,-11.46c9.02,-0.22 18.08,-0.39 27.09,0.03c6.19,0.29 8.77,-1.47 8.37,-8.06c-0.49,-8.79 -0.19,-17.6 -0.08,-26.4c0.09,-8.38 4.42,-13.34 11.35,-13.34c6.79,-0.02 11.18,5.02 11.6,13.34c0.02,0.43 0.02,0.88 0.02,1.33l0,20.46l-0.03,0Z" style="fill:#fff;fill-rule:nonzero;"/><path d="M179.96,2103.68c0,11.63 -8.75,20.52 -20.26,20.58c-11.64,0.06 -20.89,-9.28 -20.78,-20.94c0.09,-11.1 9.7,-20.54 20.78,-20.44c11.24,0.09 20.26,9.37 20.26,20.8" style="fill:#fff;fill-rule:nonzero;"/><path d="M8018.41,2234.09c35.52,-37.39 57.36,-87.85 57.36,-143.48c0,-115.17 -93.51,-208.53 -208.86,-208.53c-115.37,0 -208.88,93.36 -208.88,208.53c0,52.9 19.76,101.15 52.25,137.93l145.8,171.05l162.33,-165.51Z" style="fill:#b6936a;fill-rule:nonzero;"/><path d="M7970.57,2094.02l0,37.34c0,7.82 -6.34,14.15 -14.16,14.15l-58.07,0l0,58.07c0,7.81 -6.34,14.15 -14.16,14.15l-37.34,0c-7.82,0 -14.16,-6.34 -14.16,-14.15l0,-58.07l-58.06,0c-7.82,0 -14.16,-6.33 -14.16,-14.15l0,-37.34c0,-7.82 6.34,-14.15 14.16,-14.15l58.06,0l0,-58.07c0,-7.81 6.34,-14.15 14.16,-14.15l37.34,0c7.82,0 14.16,6.34 14.16,14.15l0,58.07l58.07,0c7.82,0 14.16,6.33 14.16,14.15Z" style="fill:#fff;fill-rule:nonzero;"/><g transform="matrix(0.999995,0.003022,-0.003057,0.999995,-273.271341,373.728478)"><g transform="matrix(187.5,0,0,187.5,1514.203354,-242.082289)"></g><text x="271.97px" y="-242.08px" style="font-family:'Coolvetica-Regular', 'Coolvetica', sans-serif;font-size:187.5px;fill:#231f20;">V<tspan x="384.1px 421.03px 510.47px 547.41px 633.28px 735.28px 796.41px 844.64px 951.14px 1046.39px 1107.52px 1202.39px 1239.33px 1330.45px 1425.7px " y="-242.08px -242.08px -242.08px -242.08px -242.08px -242.08px -242.08px -242.08px -242.08px -242.08px -242.08px -242.08px -242.08px -242.08px -242.08px ">isitor Services</tspan></text></g><g transform="matrix(0.999995,0.003022,-0.003057,0.999995,-273.240882,358.907615)"><g transform="matrix(187.5,0,0,187.5,6185.525506,-239.442946)"></g><text x="5410.05px" y="-239.44px" style="font-family:'Coolvetica-Regular', 'Coolvetica', sans-serif;font-size:187.5px;fill:#231f20;">T<tspan x="5505.1px 5561.71px 5653.78px 5749.03px 5838.46px 5937.46px 6039.46px 6100.59px " y="-239.44px -239.44px -239.44px -239.44px -239.44px -239.44px -239.44px -239.44px ">ransport</tspan></text></g><g transform="matrix(0.999995,0.003022,-0.003057,0.999995,-273.228228,351.421504)"><g transform="matrix(187.5,0,0,187.5,8618.600708,-239.003232)"></g><text x="7931.99px" y="-239px" style="font-family:'Coolvetica-Regular', 'Coolvetica', sans-serif;font-size:187.5px;fill:#231f20;">F<tspan x="8019.35px 8111.41px 8202.54px 8239.48px 8275.1px 8312.04px 8397.91px 8434.85px 8530.1px " y="-239px -239px -239px -239px -239px -239px -239px -239px -239px ">acilities</tspan></text></g><g transform="matrix(0.999995,0.003022,-0.003057,0.999995,-273.249692,343.365744)"><g transform="matrix(187.5,0,0,187.5,11366.192857,-250.006283)"></g><text x="10516.83px" y="-250.01px" style="font-family:'Coolvetica-Regular', 'Coolvetica', sans-serif;font-size:187.5px;fill:#231f20;">L<tspan x="10611.7px 10703.77px 10799.02px 10898.02px 11040.33px 11132.39px 11193.52px 11277.69px " y="-250.01px -250.01px -250.01px -250.01px -250.01px -250.01px -250.01px -250.01px ">andmarks</tspan></text></g><g transform="matrix(0.999995,0.003022,-0.003057,0.999995,-273.199557,332.484619)"><g transform="matrix(187.5,0,0,187.5,15031.05577,-238.982992)"></g><text x="14054.56px" y="-238.98px" style="font-family:'Coolvetica-Regular', 'Coolvetica', sans-serif;font-size:187.5px;fill:#231f20;">R<tspan x="14163.87px 14259.12px 14347.43px 14433.31px 14494.43px 14531.37px 14622.49px 14708.37px 14745.31px 14847.31px 14942.56px " y="-238.98px -238.98px -238.98px -238.98px -238.98px -238.98px -238.98px -238.98px -238.98px -238.98px -238.98px ">estrictions</tspan></text></g><g transform="matrix(1,0,0,0.998435,-0,-22.968278)"><g transform="matrix(83.463967,0,0,83.463967,1806.001572,714.417416)"></g><text x="1060.25px" y="714.42px" style="font-family:'RanyRegular', 'Rany';font-size:83.46px;fill:#231f20;">I<tspan x="1074.49px 1116.78px 1142.72px 1191.1px 1220.62px 1287.86px 1339.67px 1377.12px 1389.95px 1438.33px 1468.21px 1504.57px 1547.95px 1577.47px 1589.96px 1624.91px 1653.51px 1666.75px 1702.95px 1751.33px " y="714.42px 714.42px 714.42px 714.42px 714.42px 714.42px 714.42px 714.42px 714.42px 714.42px 714.42px 714.42px 714.42px 714.42px 714.42px 714.42px 714.42px 714.42px 714.42px 714.42px ">nformazio Turistikoa</tspan></text></g><g transform="matrix(1,0,0,0.998435,0,-22.96861)"><g transform="matrix(83.463967,0,0,83.463967,9193.309248,714.205432)"></g><text x="8720.16px" y="714.21px" style="font-family:'RanyRegular', 'Rany';font-size:83.46px;fill:#231f20;">A<tspan x="8774.72px 8826.53px 8878.33px 8907.85px 8944.05px 8995.85px 9009.1px 9057.48px 9095.27px 9138.64px " y="714.21px 714.21px 714.21px 714.21px 714.21px 714.21px 714.21px 714.21px 714.21px 714.21px ">parkalekua</tspan></text></g><g transform="matrix(1,0,0,0.998435,-0,-31.876006)"><g transform="matrix(83.463967,0,0,83.463967,11671.87271,723.126792)"></g><text x="11294.41px" y="723.13px" style="font-family:'RanyRegular', 'Rany';font-size:83.46px;fill:#231f20;">B<tspan x="11345.29px 11393.68px 11436.97px 11488.77px 11515.87px 11564.26px 11604.38px 11617.2px " y="723.13px 723.13px 723.13px 723.13px 723.13px 723.13px 723.13px 723.13px ">ehatokia</tspan></text></g><g transform="matrix(1,0,0,0.998435,-0,-28.3487)"><g transform="matrix(83.463967,0,0,83.463967,12420.26941,2976.77174)"></g><text x="11298.25px" y="2976.77px" style="font-family:'RanyRegular', 'Rany';font-size:83.46px;fill:#231f20;">N<tspan x="11352.61px 11402.37px 11438.71px 11467.19px 11516.96px 11547.87px 11566.42px 11618.69px 11671.88px 11708.22px 11736.7px 11786.47px 11817.38px 11845.78px 11894.21px 11924.2px 11961.87px 12011.64px 12064.83px 12083.38px 12127.56px 12163.89px 12203.06px 12247.82px 12262.45px 12292.44px 12337.2px 12365.6px " y="2976.77px 2976.77px 2976.77px 2976.77px 2976.77px 2976.77px 2976.77px 2976.77px 2976.77px 2976.77px 2976.77px 2976.77px 2976.77px 2976.77px 2976.77px 2976.77px 2976.77px 2976.77px 2976.77px 2976.77px 2976.77px 2976.77px 2976.77px 2976.77px 2976.77px 2976.77px 2976.77px 2976.77px ">estor Basterretxea Eskultura</tspan></text></g><g transform="matrix(1,0,0,0.998435,-0,-31.876006)"><g transform="matrix(83.463967,0,0,83.463967,16013.342252,723.126792)"></g><text x="14965.38px" y="723.13px" style="font-family:'RanyRegular', 'Rany';font-size:83.46px;fill:#231f20;">A<tspan x="15019.02px 15060.65px 15102.27px 15150.65px 15185.6px 15233.98px 15251.18px 15302.99px 15330px 15378.39px 15421.68px 15434.92px 15486.73px 15499.97px 15551.78px 15600.16px 15617.36px 15669.17px 15686.37px 15723.99px 15772.37px 15815.66px 15828.91px 15870.53px 15913.91px 15927.15px 15975.53px " y="723.13px 723.13px 723.13px 723.13px 723.13px 723.13px 723.13px 723.13px 723.13px 723.13px 723.13px 723.13px 723.13px 723.13px 723.13px 723.13px 723.13px 723.13px 723.13px 723.13px 723.13px 723.13px 723.13px 723.13px 723.13px 723.13px 723.13px ">cceso prohibido a vehículos</tspan></text></g><g transform="matrix(21.748913,0,0,21.714872,122.070484,-13902.948055)"><text x="43.36px" y="707.58px" style="font-family:'RanyRegular', 'Rany';font-size:3.84px;fill:#231f20;">T<tspan x="45.02px 47.4px 49.78px 52px 53.36px 55.35px " y="707.58px 707.58px 707.58px 707.58px 707.58px 707.58px ">aberna</tspan></text><text x="58.53px" y="707.58px" style="font-family:'ArialMT', 'Arial', sans-serif;font-size:3.84px;fill:#231f20;">–</text><g transform="matrix(3.837616,0,0,3.837616,76.78379,707.5834)"></g><text x="61.32px" y="707.58px" style="font-family:'RanyRegular', 'Rany';font-size:3.84px;fill:#231f20;"><tspan x="61.32px 63.27px 65.65px 66.9px 69.06px 70.38px 72.05px 74.27px " y="707.58px 707.58px 707.58px 707.58px 707.58px 707.58px 707.58px 707.58px ">Jatetxea</tspan></text></g><g transform="matrix(1,0,0,0.998435,0,-21.760317)"><g transform="matrix(83.463967,0,0,83.463967,9059.956039,1486.200716)"></g><text x="8715.49px" y="1486.2px" style="font-family:'RanyRegular', 'Rany';font-size:83.46px;fill:#231f20;">K<tspan x="8762.87px 8811.25px 8878.5px 8921.88px 8965.17px 9016.97px " y="1486.2px 1486.2px 1486.2px 1486.2px 1486.2px 1486.2px ">omunak</tspan></text></g><g transform="matrix(1,0,0,0.998435,-0,-30.667681)"><g transform="matrix(83.463967,0,0,83.463967,11655.653303,1495.142909)"></g><text x="11294.49px" y="1495.14px" style="font-family:'RanyRegular', 'Rany';font-size:83.46px;fill:#231f20;">I<tspan x="11308.74px 11337.34px 11372.28px 11424.09px 11459.03px 11510.84px 11537.77px 11588.16px 11600.98px " y="1495.14px 1495.14px 1495.14px 1495.14px 1495.14px 1495.14px 1495.14px 1495.14px 1495.14px ">tsasargia</tspan></text></g><g transform="matrix(1,0,0,0.998435,-0,-30.667681)"><g transform="matrix(83.463967,0,0,83.463967,15812.759694,1495.142909)"></g><text x="14960.63px" y="1495.14px" style="font-family:'RanyRegular', 'Rany';font-size:83.46px;fill:#231f20;">D<tspan x="15018.61px 15066.99px 15118.8px 15167.18px 15203.38px 15255.18px 15283.78px 15327.16px 15354.26px 15406.06px 15423.27px 15458.21px 15501.59px 15553.39px 15570.59px 15618.98px 15669.36px 15682.61px 15709.71px 15758.09px " y="1495.14px 1495.14px 1495.14px 1495.14px 1495.14px 1495.14px 1495.14px 1495.14px 1495.14px 1495.14px 1495.14px 1495.14px 1495.14px 1495.14px 1495.14px 1495.14px 1495.14px 1495.14px 1495.14px 1495.14px ">ebekatuta sua egitea</tspan></text></g><g transform="matrix(1,0,0,0.998435,-0,-20.567954)"><g transform="matrix(83.463967,0,0,83.463967,1369.909713,2248.017764)"></g><text x="1062.92px" y="2248.02px" style="font-family:'RanyRegular', 'Rany';font-size:83.46px;fill:#231f20;">O<tspan x="1129.41px 1164.36px 1191.46px 1243.26px 1271.87px 1315.24px " y="2248.02px 2248.02px 2248.02px 2248.02px 2248.02px 2248.02px ">statua</tspan></text></g><g transform="matrix(1,0,0,0.998435,-0,-20.56708)"><g transform="matrix(83.463967,0,0,83.463967,9006.513007,2248.576384)"></g><text x="8715.41px" y="2248.58px" style="font-family:'RanyRegular', 'Rany';font-size:83.46px;fill:#231f20;">B<tspan x="8766.29px 8813.34px 8841.94px 8855.19px 8895.31px 8908.55px 8951.84px " y="2248.58px 2248.58px 2248.58px 2248.58px 2248.58px 2248.58px 2248.58px ">otikina</tspan></text></g><g transform="matrix(1,0,0,0.998435,0,-22.968577)"><g transform="matrix(83.463967,0,0,83.463967,4054.201056,714.226265)"></g><text x="3491.18px" y="714.23px" style="font-family:'RanyRegular', 'Rany';font-size:83.46px;fill:#231f20;">A<tspan x="3540.48px 3569.08px 3604.03px 3652.41px 3704.22px 3752.6px 3795.89px 3813.09px 3864.48px 3907.86px 3951.15px 3999.53px " y="714.23px 714.23px 714.23px 714.23px 714.23px 714.23px 714.23px 714.23px 714.23px 714.23px 714.23px 714.23px ">tseden gunea</tspan></text></g><g transform="matrix(1,0,0,0.998435,-0,-22.96861)"><g transform="matrix(83.463967,0,0,83.463967,6551.545426,714.205432)"></g><text x="6194.17px" y="714.21px" style="font-family:'RanyRegular', 'Rany';font-size:83.46px;fill:#231f20;">A<tspan x="6247.89px 6291.27px 6318.37px 6366.75px 6418.56px 6461.93px 6496.88px " y="714.21px 714.21px 714.21px 714.21px 714.21px 714.21px 714.21px ">utobusa</tspan></text></g><g transform="matrix(1,0,0,0.998435,-0,-21.760824)"><g transform="matrix(83.463967,0,0,83.463967,6404.05941,1485.876497)"></g><text x="6194.25px" y="1485.88px" style="font-family:'RanyRegular', 'Rany';font-size:83.46px;fill:#231f20;">T<tspan x="6230.7px 6257.72px 6306.1px 6349.39px " y="1485.88px 1485.88px 1485.88px 1485.88px ">rena</tspan></text></g><g transform="matrix(1,0,0,0.998435,0,-20.56708)"><g transform="matrix(83.463967,0,0,83.463967,6888.529359,2248.576384)"></g><text x="6189.49px" y="2248.58px" style="font-family:'RanyRegular', 'Rany';font-size:83.46px;fill:#231f20;">I<tspan x="6203.74px 6232.34px 6267.29px 6319.09px 6354.04px 6371.24px 6419.62px 6462px 6490.6px 6528.05px 6541.29px 6558.5px 6587.1px 6630.47px 6659.99px 6672.49px 6707.43px 6736.04px 6749.28px 6785.48px 6833.86px " y="2248.58px 2248.58px 2248.58px 2248.58px 2248.58px 2248.58px 2248.58px 2248.58px 2248.58px 2248.58px 2248.58px 2248.58px 2248.58px 2248.58px 2248.58px 2248.58px 2248.58px 2248.58px 2248.58px 2248.58px 2248.58px ">tsas ontzi turistikoa</tspan></text></g><g transform="matrix(1,0,0,0.998435,-0,-21.760317)"><g transform="matrix(83.463967,0,0,83.463967,4000.201173,1486.200716)"></g><text x="3486.51px" y="1486.2px" style="font-family:'RanyRegular', 'Rany';font-size:83.46px;fill:#231f20;">K<tspan x="3533.89px 3582.27px 3624.65px 3653.25px 3680.26px 3728.65px 3741.89px 3759.09px 3810.48px 3853.86px 3897.15px 3945.53px " y="1486.2px 1486.2px 1486.2px 1486.2px 1486.2px 1486.2px 1486.2px 1486.2px 1486.2px 1486.2px 1486.2px 1486.2px ">ontrol gunea</tspan></text></g><g transform="matrix(1,0,0,0.998435,-0,-29.474476)"><g transform="matrix(83.463967,0,0,83.463967,11956.404807,2257.497744)"></g><text x="11294.41px" y="2257.5px" style="font-family:'RanyRegular', 'Rany';font-size:83.46px;fill:#231f20;">E<tspan x="11337.2px 11366.72px 11433.38px 11446.62px 11473.72px 11525.53px 11542.73px 11575.17px 11592.38px 11638.01px 11689.81px 11719.33px 11746.35px 11794.73px 11846.53px 11888.91px 11901.74px " y="2257.5px 2257.5px 2257.5px 2257.5px 2257.5px 2257.5px 2257.5px 2257.5px 2257.5px 2257.5px 2257.5px 2257.5px 2257.5px 2257.5px 2257.5px 2257.5px 2257.5px ">rmita / Parroquia</tspan></text></g><g transform="matrix(1,0,0,0.998435,-0,-23.403857)"><text x="1060.25px" y="600.54px" style="font-family:'RanyRegular', 'Rany';font-size:83.46px;fill:#231f20;">I<tspan x="1075.88px 1119.56px 1146.87px 1196.64px 1227.55px 1296.18px 1349.37px 1391.96px 1406.18px 1455.94px 1500.62px 1519.18px 1549.16px 1593.93px 1624.83px 1638.71px 1675.04px 1705.03px 1719.66px 1762.67px " y="600.54px 600.54px 600.54px 600.54px 600.54px 600.54px 600.54px 600.54px 600.54px 600.54px 600.54px 600.54px 600.54px 600.54px 600.54px 600.54px 600.54px 600.54px 600.54px 600.54px ">nformación turística</tspan></text></g><g transform="matrix(1,0,0,0.998435,0,-23.403857)"><g transform="matrix(83.463967,0,0,83.463967,9262.529997,600.54149)"></g><text x="8720.16px" y="600.54px" style="font-family:'RanyRegular', 'Rany';font-size:83.46px;fill:#231f20;">A<tspan x="8776.11px 8829.3px 8882.49px 8910.81px 8953.82px 9007.01px 9075.06px 9089.27px 9139.04px 9182.8px 9211.28px " y="600.54px 600.54px 600.54px 600.54px 600.54px 600.54px 600.54px 600.54px 600.54px 600.54px 600.54px ">parcamiento</tspan></text></g><g transform="matrix(1,0,0,0.998435,-0,-32.406423)"><g transform="matrix(83.463967,0,0,83.463967,11595.690404,609.558168)"></g><text x="11296.74px" y="609.56px" style="font-family:'RanyRegular', 'Rany';font-size:83.46px;fill:#231f20;">M<tspan x="11364.12px 11378.75px 11407.16px 11460.35px 11513.54px 11563.31px " y="609.56px 609.56px 609.56px 609.56px 609.56px 609.56px ">irador</tspan></text></g><g transform="matrix(1,0,0,0.998435,-0,-28.871482)"><g transform="matrix(83.463967,0,0,83.463967,12420.26941,2868.080698)"></g><text x="11294.41px" y="2868.08px" style="font-family:'RanyRegular', 'Rany';font-size:83.46px;fill:#231f20;">E<tspan x="11338.58px 11374.92px 11417.92px 11462.68px 11477.32px 11507.3px 11552.06px 11580.47px 11633.66px 11652.21px 11706.57px 11756.34px 11792.67px 11821.16px 11870.93px 11901.83px 11920.39px 11972.66px 12025.85px 12062.18px 12090.67px 12140.43px 12171.34px 12199.74px 12248.18px 12278.16px 12315.83px 12365.6px " y="2868.08px 2868.08px 2868.08px 2868.08px 2868.08px 2868.08px 2868.08px 2868.08px 2868.08px 2868.08px 2868.08px 2868.08px 2868.08px 2868.08px 2868.08px 2868.08px 2868.08px 2868.08px 2868.08px 2868.08px 2868.08px 2868.08px 2868.08px 2868.08px 2868.08px 2868.08px 2868.08px 2868.08px ">scultura Nestor Basterretxea</tspan></text></g><g transform="matrix(1,0,0,0.998435,-0,-32.406423)"><g transform="matrix(83.463967,0,0,83.463967,16050.656394,609.558168)"></g><text x="14965.38px" y="609.56px" style="font-family:'RanyRegular', 'Rany';font-size:83.46px;fill:#231f20;">A<tspan x="15020.41px 15063.42px 15106.43px 15156.19px 15192.53px 15242.3px 15260.85px 15314.04px 15342.44px 15392.21px 15436.89px 15451.52px 15504.71px 15519.34px 15572.53px 15622.3px 15640.85px 15694.05px 15712.6px 15751.6px 15801.37px 15846.05px 15860.68px 15903.69px 15948.45px 15963.08px 16012.85px " y="609.56px 609.56px 609.56px 609.56px 609.56px 609.56px 609.56px 609.56px 609.56px 609.56px 609.56px 609.56px 609.56px 609.56px 609.56px 609.56px 609.56px 609.56px 609.56px 609.56px 609.56px 609.56px 609.56px 609.56px 609.56px 609.56px 609.56px ">cceso prohibido a vehículos</tspan></text></g><g transform="matrix(21.748913,0,0,21.714872,117.230878,-14176.953852)"><text x="43.36px" y="715.14px" style="font-family:'RanyRegular', 'Rany';font-size:3.84px;fill:#231f20;">Ba<tspan x="48.2px " y="715.14px ">r</tspan></text><text x="50.48px" y="715.14px" style="font-family:'ArialMT', 'Arial', sans-serif;font-size:3.84px;fill:#231f20;">–</text><g transform="matrix(3.837616,0,0,3.837616,74.800308,715.1434)"></g><text x="53.4px" y="715.14px" style="font-family:'RanyRegular', 'Rany';font-size:3.84px;fill:#231f20;">R<tspan x="55.6px 57.89px 59.56px 60.87px 63.31px 65.37px 66.68px 69.12px 71.13px 72.44px " y="715.14px 715.14px 715.14px 715.14px 715.14px 715.14px 715.14px 715.14px 715.14px 715.14px ">estaurante</tspan></text></g><g transform="matrix(1,0,0,0.998435,-0,-22.189146)"><g transform="matrix(83.463967,0,0,83.463967,8953.126135,1376.637533)"></g><text x="8715.41px" y="1376.64px" style="font-family:'RanyRegular', 'Rany';font-size:83.46px;fill:#231f20;">B<tspan x="8767.68px 8820.87px 8865.55px 8915.32px " y="1376.64px 1376.64px 1376.64px 1376.64px ">anos</tspan></text></g><g transform="matrix(1,0,0,0.998435,-0,-31.191711)"><g transform="matrix(83.463967,0,0,83.463967,11469.838152,1385.654211)"></g><text x="11294.49px" y="1385.65px" style="font-family:'RanyRegular', 'Rany';font-size:83.46px;fill:#231f20;">F<tspan x="11337px 11390.19px 11418.59px " y="1385.65px 1385.65px 1385.65px ">aro</tspan></text></g><g transform="matrix(1,0,0,0.998435,-0,-31.190866)"><g transform="matrix(83.463967,0,0,83.463967,15805.015091,1386.194319)"></g><text x="14960.62px" y="1386.19px" style="font-family:'RanyRegular', 'Rany';font-size:83.46px;fill:#231f20;">P<tspan x="15010.31px 15038.71px 15088.48px 15133.16px 15147.79px 15200.98px 15215.61px 15268.8px 15318.57px 15337.12px 15381.8px 15434.99px 15478px 15527.77px 15558.67px 15577.23px 15606.46px 15651.23px 15700.99px 15753.77px " y="1386.19px 1386.19px 1386.19px 1386.19px 1386.19px 1386.19px 1386.19px 1386.19px 1386.19px 1386.19px 1386.19px 1386.19px 1386.19px 1386.19px 1386.19px 1386.19px 1386.19px 1386.19px 1386.19px 1386.19px ">rohibido hacer fuego</tspan></text></g><g transform="matrix(1,0,0,0.998435,0,-20.991715)"><g transform="matrix(83.463967,0,0,83.463967,1507.775948,2141.692904)"></g><text x="1064.92px" y="2141.69px" style="font-family:'RanyRegular', 'Rany';font-size:83.46px;fill:#231f20;">A<tspan x="1120.87px 1135.5px 1184.77px 1199.06px 1252.25px 1320.3px 1334.51px 1384.28px 1428.04px 1456.53px " y="2141.69px 2141.69px 2141.69px 2141.69px 2141.69px 2141.69px 2141.69px 2141.69px 2141.69px 2141.69px ">lojamiento</tspan></text></g><g transform="matrix(1,0,0,0.998435,-0,-20.991715)"><g transform="matrix(83.463967,0,0,83.463967,9018.050995,2141.692904)"></g><text x="8715.41px" y="2141.69px" style="font-family:'RanyRegular', 'Rany';font-size:83.46px;fill:#231f20;">B<tspan x="8767.68px 8816.11px 8846.1px 8860.31px 8913.51px 8957.26px 8971.9px " y="2141.69px 2141.69px 2141.69px 2141.69px 2141.69px 2141.69px 2141.69px ">otiquin</tspan></text></g><g transform="matrix(1,0,0,0.998435,0,-23.403857)"><g transform="matrix(83.463967,0,0,83.463967,4087.872563,600.54149)"></g><text x="3491.18px" y="600.54px" style="font-family:'RanyRegular', 'Rany';font-size:83.46px;fill:#231f20;">Á<tspan x="3547.13px 3575.53px 3625.3px 3678.49px 3697.04px 3725.44px 3775.21px 3818.22px 3846.62px 3896.39px 3949.58px 3979.57px 3994.2px 4033.2px " y="600.54px 600.54px 600.54px 600.54px 600.54px 600.54px 600.54px 600.54px 600.54px 600.54px 600.54px 600.54px 600.54px 600.54px ">rea recreativa</tspan></text></g><g transform="matrix(1,0,0,0.998435,-0,-23.403857)"><g transform="matrix(83.463967,0,0,83.463967,6508.056207,600.54149)"></g><text x="6194.17px" y="600.54px" style="font-family:'RanyRegular', 'Rany';font-size:83.46px;fill:#231f20;">A<tspan x="6249.28px 6294.04px 6322.53px 6372.29px 6425.49px 6470.25px " y="600.54px 600.54px 600.54px 600.54px 600.54px 600.54px ">utobús</tspan></text></g><g transform="matrix(1,0,0,0.998435,-0,-22.189146)"><g transform="matrix(83.463967,0,0,83.463967,6356.412285,1376.637533)"></g><text x="6194.25px" y="1376.64px" style="font-family:'RanyRegular', 'Rany';font-size:83.46px;fill:#231f20;">T<tspan x="6232.09px 6260.49px 6310.26px " y="1376.64px 1376.64px 1376.64px ">ren</tspan></text></g><g transform="matrix(1,0,0,0.998435,0,-20.991715)"><g transform="matrix(83.463967,0,0,83.463967,6729.265715,2141.692904)"></g><text x="6189.41px" y="2141.69px" style="font-family:'RanyRegular', 'Rany';font-size:83.46px;fill:#231f20;">B<tspan x="6241.69px 6294.88px 6323.19px 6366.2px 6415.97px 6434.53px 6464.51px 6509.27px 6540.18px 6554.06px 6590.39px 6620.38px 6635.01px 6678.02px " y="2141.69px 2141.69px 2141.69px 2141.69px 2141.69px 2141.69px 2141.69px 2141.69px 2141.69px 2141.69px 2141.69px 2141.69px 2141.69px 2141.69px ">arco turistico</tspan></text></g><g transform="matrix(1,0,0,0.998435,0,-22.1886)"><g transform="matrix(83.463967,0,0,83.463967,4103.752561,1376.986491)"></g><text x="3486.42px" y="1376.99px" style="font-family:'RanyRegular', 'Rany';font-size:83.46px;fill:#231f20;">P<tspan x="3536.11px 3580.87px 3624.63px 3653.11px 3702.88px 3721.43px 3774.63px 3824.39px 3842.95px 3885.96px 3935.73px 3979.48px 4009.47px 4037.88px 4087.64px " y="1376.99px 1376.99px 1376.99px 1376.99px 1376.99px 1376.99px 1376.99px 1376.99px 1376.99px 1376.99px 1376.99px 1376.99px 1376.99px 1376.99px 1376.99px ">unto de control</tspan></text></g><g transform="matrix(1,0,0,0.998435,0,-29.99428)"><g transform="matrix(83.463967,0,0,83.463967,11531.840469,2150.709582)"></g><text x="11294.49px" y="2150.71px" style="font-family:'RanyRegular', 'Rany';font-size:83.46px;fill:#231f20;">I<tspan x="11310.12px 11362.9px 11377.53px 11427.29px 11462.96px 11477.17px " y="2150.71px 2150.71px 2150.71px 2150.71px 2150.71px 2150.71px ">glesia</tspan></text></g><g transform="matrix(1,0,0,0.998435,-0,-29.99408)"><g transform="matrix(83.463967,0,0,83.463967,15783.338912,2150.837695)"></g><text x="14960.62px" y="2150.84px" style="font-family:'RanyRegular', 'Rany';font-size:83.46px;fill:#231f20;">P<tspan x="15010.31px 15038.71px 15088.48px 15133.16px 15147.79px 15200.98px 15215.61px 15268.8px 15318.57px 15337.12px 15367.11px 15381.74px 15410.14px 15463.33px 15494.24px 15512.79px 15565.98px 15619.18px 15655.51px 15700.27px 15728.67px " y="2150.84px 2150.84px 2150.84px 2150.84px 2150.84px 2150.84px 2150.84px 2150.84px 2150.84px 2150.84px 2150.84px 2150.84px 2150.84px 2150.84px 2150.84px 2150.84px 2150.84px 2150.84px 2150.84px 2150.84px 2150.84px ">rohibido tirar basura</tspan></text></g><g transform="matrix(1,0,0,0.998435,-0,-28.87145)"><g transform="matrix(83.463967,0,0,83.463967,15693.910205,2868.101531)"></g><text x="14960.62px" y="2868.1px" style="font-family:'RanyRegular', 'Rany';font-size:83.46px;fill:#231f20;">P<tspan x="15010.31px 15038.71px 15088.48px 15133.16px 15147.79px 15200.98px 15215.61px 15268.8px 15318.57px 15337.12px 15390.31px 15433.32px 15486.51px 15555.14px 15608.34px 15661.53px " y="2868.1px 2868.1px 2868.1px 2868.1px 2868.1px 2868.1px 2868.1px 2868.1px 2868.1px 2868.1px 2868.1px 2868.1px 2868.1px 2868.1px 2868.1px 2868.1px ">rohibido acampar</tspan></text></g><g transform="matrix(1,0,0,0.998435,-0,-29.82381)"><g transform="matrix(83.463967,0,0,83.463967,16117.738276,2259.625417)"></g><text x="14960.63px" y="2259.63px" style="font-family:'RanyRegular', 'Rany';font-size:83.46px;fill:#231f20;">D<tspan x="15019.99px 15069.76px 15122.95px 15172.72px 15210.31px 15263.5px 15293.48px 15338.25px 15366.73px 15419.92px 15438.48px 15475.64px 15528.83px 15582.02px 15631.79px 15662.7px 15691.1px 15744.29px 15762.85px 15816.04px 15864.47px 15892.96px 15946.15px 15976.13px 16013.3px 16063.07px " y="2259.63px 2259.63px 2259.63px 2259.63px 2259.63px 2259.63px 2259.63px 2259.63px 2259.63px 2259.63px 2259.63px 2259.63px 2259.63px 2259.63px 2259.63px 2259.63px 2259.63px 2259.63px 2259.63px 2259.63px 2259.63px 2259.63px 2259.63px 2259.63px 2259.63px 2259.63px ">ebekatuta zaborra botatzea</tspan></text></g><g transform="matrix(1,0,0,0.998435,0,-28.700779)"><g transform="matrix(83.463967,0,0,83.463967,15851.901301,2977.145237)"></g><text x="14960.63px" y="2977.15px" style="font-family:'RanyRegular', 'Rany';font-size:83.46px;fill:#231f20;">D<tspan x="15019.99px 15069.76px 15122.95px 15172.72px 15210.31px 15263.5px 15293.48px 15338.25px 15366.73px 15419.92px 15438.48px 15476.06px 15529.25px 15573.93px 15627.12px 15680.31px 15710.3px 15747.46px 15797.23px " y="2977.15px 2977.15px 2977.15px 2977.15px 2977.15px 2977.15px 2977.15px 2977.15px 2977.15px 2977.15px 2977.15px 2977.15px 2977.15px 2977.15px 2977.15px 2977.15px 2977.15px 2977.15px 2977.15px ">ebekatuta kanpatzea</tspan></text></g><g transform="matrix(1,0,0,0.998435,0,-24.165585)"><text x="1064.46px" y="442.71px" style="font-family:'RanyBold', 'Rany';font-weight:700;font-size:104.33px;fill:#231f20;">T<tspan x="1113.79px 1176.67px 1239.56px 1285.96px 1308.58px 1359.05px 1400.97px 1424.52px 1450.27px 1512.32px 1549.85px 1612.74px 1659.14px 1751.97px 1820.7px 1862.62px 1886.17px 1949.06px " y="442.71px 442.71px 442.71px 442.71px 442.71px 442.71px 442.71px 442.71px 442.71px 442.71px 442.71px 442.71px 442.71px 442.71px 442.71px 442.71px 442.71px 442.71px ">ourist Information</tspan></text></g><g transform="matrix(1,0,0,0.998435,-0,-24.17099)"><g transform="matrix(104.329959,0,0,104.329959,9112.98842,439.253038)"></g><text x="8714.28px" y="439.25px" style="font-family:'RanyBold', 'Rany';font-weight:700;font-size:104.33px;fill:#231f20;">P<tspan x="8780.3px 8849.03px 8895.43px 8956.44px 8979.99px 9042.77px " y="439.25px 439.25px 439.25px 439.25px 439.25px 439.25px ">arking</tspan></text></g><g transform="matrix(1,0,0,0.998435,-0,-33.358872)"><g transform="matrix(104.329959,0,0,104.329959,11810.770872,451.668773)"></g><text x="11299.23px" y="451.67px" style="font-family:'RanyBold', 'Rany';font-weight:700;font-size:104.33px;fill:#231f20;">V<tspan x="11374.11px 11397.66px 11457.11px 11550.15px 11618.88px 11681.76px 11705.32px 11767.37px " y="451.67px 451.67px 451.67px 451.67px 451.67px 451.67px 451.67px 451.67px ">iewpoint</tspan></text></g><g transform="matrix(1,0,0,0.998435,0,-29.831459)"><g transform="matrix(104.329959,0,0,104.329959,12791.717877,2705.381784)"></g><text x="11297.24px" y="2705.38px" style="font-family:'RanyMedium', 'Rany';font-weight:500;font-size:104.33px;fill:#231f20;">S<tspan x="11358.67px 11415.3px 11474.22px 11495.69px 11562.75px 11604.45px 11663.38px 11701.43px 11764.63px 11788.19px 11859.31px 11922.51px 11971.32px 12011.67px 12074.87px 12115.43px 12138.98px 12205.52px 12273.42px 12322.22px 12362.57px 12425.77px 12466.33px 12504.39px 12566.65px 12608.35px 12659.14px 12722.34px " y="2705.38px 2705.38px 2705.38px 2705.38px 2705.38px 2705.38px 2705.38px 2705.38px 2705.38px 2705.38px 2705.38px 2705.38px 2705.38px 2705.38px 2705.38px 2705.38px 2705.38px 2705.38px 2705.38px 2705.38px 2705.38px 2705.38px 2705.38px 2705.38px 2705.38px 2705.38px 2705.38px 2705.38px ">culpture Nestor Basterretxea</tspan></text></g><g transform="matrix(1,0,0,0.998435,-0,-33.358872)"><g transform="matrix(104.329959,0,0,104.329959,15531.818885,451.668773)"></g><text x="14959.39px" y="451.67px" style="font-family:'RanyBold', 'Rany';font-weight:700;font-size:104.33px;fill:#231f20;">N<tspan x="15033.55px 15096.43px 15119.99px 15187.47px 15250.46px 15313.24px 15336.79px 15393.32px 15416.87px 15479.86px " y="451.67px 451.67px 451.67px 451.67px 451.67px 451.67px 451.67px 451.67px 451.67px 451.67px ">o Vehicles</tspan></text></g><g transform="matrix(1,0,0,0.998435,0,-22.948699)"><g transform="matrix(104.329959,0,0,104.329959,1907.922825,1220.192201)"></g><text x="1058.94px" y="1220.19px" style="font-family:'RanyBold', 'Rany';font-weight:700;font-size:104.33px;fill:#231f20;">R<tspan x="1126.2px 1189.19px 1239.67px 1280.54px 1349.27px 1412.16px 1456.99px 1525.72px 1587.77px 1629.69px 1653.25px 1700.17px 1723.72px 1791.31px 1860.04px " y="1220.19px 1220.19px 1220.19px 1220.19px 1220.19px 1220.19px 1220.19px 1220.19px 1220.19px 1220.19px 1220.19px 1220.19px 1220.19px 1220.19px 1220.19px ">estaurant / Bar</tspan></text></g><g transform="matrix(1,0,0,0.998435,-0,-22.948054)"><g transform="matrix(104.329959,0,0,104.329959,9035.05231,1220.603985)"></g><text x="8719.7px" y="1220.6px" style="font-family:'RanyBold', 'Rany';font-weight:700;font-size:104.33px;fill:#231f20;">T<tspan x="8769.03px 8831.91px 8855.47px 8879.02px 8941.18px 8983.1px " y="1220.6px 1220.6px 1220.6px 1220.6px 1220.6px 1220.6px ">oilets</tspan></text></g><g transform="matrix(104.166667,0,0,104.166667,11847.237928,1190.497753)"></g><text x="11293.29px" y="1190.5px" style="font-family:'RanyBold', 'Rany';font-weight:700;font-size:104.17px;fill:#231f20;">L<tspan x="11348.99px 11372.51px 11441.13px 11502.36px 11544.21px 11606.89px 11669.68px 11732.47px 11782.86px " y="1190.5px 1190.5px 1190.5px 1190.5px 1190.5px 1190.5px 1190.5px 1190.5px 1190.5px ">ighthouse</tspan></text><g transform="matrix(104.166667,0,0,104.166667,15309.883258,1190.497753)"></g><text x="14959.4px" y="1190.5px" style="font-family:'RanyBold', 'Rany';font-weight:700;font-size:104.17px;fill:#231f20;">N<tspan x="15033.44px 15096.23px 15119.75px 15177.22px 15200.74px 15245.51px " y="1190.5px 1190.5px 1190.5px 1190.5px 1190.5px 1190.5px ">o Fire</tspan></text><g transform="matrix(1,0,0,0.998435,0,-21.757264)"><g transform="matrix(104.329959,0,0,104.329959,1892.970174,1981.416183)"></g><text x="1064.88px" y="1981.42px" style="font-family:'RanyBold', 'Rany';font-weight:700;font-size:104.33px;fill:#231f20;">A<tspan x="1140.08px 1195.77px 1251.45px 1314.34px 1407.17px 1500px 1562.89px 1631.62px 1700.35px 1742.26px 1765.82px 1828.7px " y="1981.42px 1981.42px 1981.42px 1981.42px 1981.42px 1981.42px 1981.42px 1981.42px 1981.42px 1981.42px 1981.42px 1981.42px ">ccommodation</tspan></text></g><g transform="matrix(1,0,0,0.998435,0,-21.758237)"><g transform="matrix(104.329959,0,0,104.329959,9127.023005,1980.794439)"></g><text x="8714.28px" y="1980.79px" style="font-family:'RanyBold', 'Rany';font-weight:700;font-size:104.33px;fill:#231f20;">F<tspan x="8771.84px 8795.4px 8840.97px 8891.44px 8933.35px 8956.91px 9033.25px 9056.81px " y="1980.79px 1980.79px 1980.79px 1980.79px 1980.79px 1980.79px 1980.79px 1980.79px ">irst Aid</tspan></text></g><g transform="matrix(1,0,0,0.998435,0,-24.165969)"><g transform="matrix(104.329959,0,0,104.329959,4317.616704,442.461459)"></g><text x="3485.19px" y="442.46px" style="font-family:'RanyBold', 'Rany';font-weight:700;font-size:104.33px;fill:#231f20;">R<tspan x="3552.46px 3615.45px 3671.98px 3716.81px 3779.8px 3848.53px 3890.45px 3914px 3976.89px 4039.67px 4063.23px 4139.57px 4184.41px 4247.4px " y="442.46px 442.46px 442.46px 442.46px 442.46px 442.46px 442.46px 442.46px 442.46px 442.46px 442.46px 442.46px 442.46px 442.46px ">ecreation Area</tspan></text></g><g transform="matrix(1,0,0,0.998435,0,-24.166178)"><g transform="matrix(104.329959,0,0,104.329959,6626.613896,442.327995)"></g><text x="6188.28px" y="442.33px" style="font-family:'RanyBold', 'Rany';font-weight:700;font-size:104.33px;fill:#231f20;">B<tspan x="6255.87px 6318.75px 6369.22px 6392.78px 6452.64px 6493.51px 6556.4px " y="442.33px 442.33px 442.33px 442.33px 442.33px 442.33px 442.33px ">us Stop</tspan></text></g><g transform="matrix(104.166667,0,0,104.166667,6803.811711,1195.909883)"></g><text x="6193.92px" y="1195.91px" style="font-family:'RanyMedium', 'Rany';font-weight:500;font-size:104.17px;fill:#231f20;">T<tspan x="6243.67px 6281.67px 6347.99px 6369.32px 6428.05px 6451.57px 6509.98px 6550.37px 6618.16px 6659.8px 6680.5px 6743.6px " y="1195.91px 1195.91px 1195.91px 1195.91px 1195.91px 1195.91px 1195.91px 1195.91px 1195.91px 1195.91px 1195.91px 1195.91px ">rain Station</tspan></text><g transform="matrix(104.166667,0,0,104.166667,6779.157972,1955.935949)"></g><text x="6193.92px" y="1955.94px" style="font-family:'RanyMedium', 'Rany';font-weight:500;font-size:104.17px;fill:#231f20;">T<tspan x="6242.11px 6305.21px 6364.04px 6404.54px 6424.82px 6473.55px 6515.19px 6538.71px 6605.14px 6668.24px 6736.03px " y="1955.94px 1955.94px 1955.94px 1955.94px 1955.94px 1955.94px 1955.94px 1955.94px 1955.94px 1955.94px 1955.94px ">ourist Boat</tspan></text><g transform="matrix(1,0,0,0.998435,-0,-22.958089)"><g transform="matrix(104.329959,0,0,104.329959,4086.935492,1214.192506)"></g><text x="3488.64px" y="1214.19px" style="font-family:'RanyBold', 'Rany';font-weight:700;font-size:104.33px;fill:#231f20;">C<tspan x="3562.16px 3624.95px 3687.94px 3744.46px 3805.47px 3829.02px 3895.04px 3957.93px 3981.48px 4043.53px " y="1214.19px 1214.19px 1214.19px 1214.19px 1214.19px 1214.19px 1214.19px 1214.19px 1214.19px 1214.19px ">heck Point</tspan></text></g><g transform="matrix(1,0,0,0.998435,-0,-30.952045)"><g transform="matrix(104.329959,0,0,104.329959,11661.444495,1989.423953)"></g><text x="11296.62px" y="1989.42px" style="font-family:'RanyBold', 'Rany';font-weight:700;font-size:104.33px;fill:#231f20;">C<tspan x="11370.15px 11432.93px 11495.82px 11540.65px 11597.18px " y="1989.42px 1989.42px 1989.42px 1989.42px 1989.42px ">hurch</tspan></text></g><g transform="matrix(1,0,0,0.998435,0,-30.951836)"><g transform="matrix(104.329959,0,0,104.329959,15548.070194,1989.557417)"></g><text x="14959.39px" y="1989.56px" style="font-family:'RanyBold', 'Rany';font-weight:700;font-size:104.33px;fill:#231f20;">N<tspan x="15033.55px 15096.43px 15119.99px 15175.78px 15199.34px 15241.25px 15282.13px 15345.12px 15391.52px 15415.07px 15477.86px " y="1989.56px 1989.56px 1989.56px 1989.56px 1989.56px 1989.56px 1989.56px 1989.56px 1989.56px 1989.56px 1989.56px ">o Littering</tspan></text></g><g transform="matrix(1,0,0,0.998435,-0,-29.831717)"><g transform="matrix(104.329959,0,0,104.329959,15578.582871,2705.217396)"></g><text x="14959.39px" y="2705.22px" style="font-family:'RanyBold', 'Rany';font-weight:700;font-size:104.33px;fill:#231f20;">N<tspan x="15033.55px 15096.43px 15119.99px 15191.74px 15260.47px 15353.3px 15422.03px 15445.59px 15508.37px " y="2705.22px 2705.22px 2705.22px 2705.22px 2705.22px 2705.22px 2705.22px 2705.22px 2705.22px ">o Camping</tspan></text></g><path d="M5567.98,392.85l0,442.12c0,27.29 -22.16,49.45 -49.45,49.45l-327.63,0c-27.29,0 -49.45,-22.16 -49.45,-49.45l0,-442.12c0,-27.29 22.16,-49.45 49.45,-49.45l327.63,0c27.29,0 49.45,22.16 49.45,49.45Z" style="fill:#10755a;"/><path d="M5409.3,675.68c9.86,-0.02 17.79,-7.36 17.74,-16.43c-0.05,-9.18 -8.13,-16.67 -17.96,-16.64c-9.6,0.03 -17.79,7.65 -17.77,16.56c0,9.23 7.96,16.53 17.99,16.51m-109,0c9.86,-0.02 17.79,-7.36 17.74,-16.43c-0.05,-9.18 -8.12,-16.67 -17.94,-16.64c-9.6,0.03 -17.81,7.65 -17.79,16.56c0.02,9.23 7.96,16.53 17.99,16.51m54.29,-67.77c23,0 45.97,-0.03 68.95,0.06c2.84,0.02 3.73,-0.7 3.69,-3.41c-0.12,-16.32 -0.05,-32.64 -0.05,-48.96c-0.02,-3.52 -0.02,-3.52 -3.71,-3.52c-45.86,-0.02 -91.73,0.02 -137.61,-0.06c-2.84,0 -3.71,0.64 -3.69,3.38c0.12,16.32 0.05,32.64 0.05,48.96c0,3.55 0.02,3.55 3.98,3.55l68.39,0Zm97.37,0.06c0,18.63 -0.03,37.25 0.02,55.86c0.02,9.55 -3.37,17.79 -10.48,24.66c-1.18,1.12 -1.57,2.28 -1.56,3.78c0.05,5.48 -0.03,10.95 0.03,16.42c0.09,8.19 -6.24,13.44 -13.77,12.88c-3.67,-0.29 -7.36,-0.03 -11.06,-0.06c-6.9,-0.05 -12.18,-4.91 -12.35,-11.35c-0.07,-2.84 -0.1,-5.64 0.02,-8.48c0.05,-1.8 -0.62,-2.57 -2.61,-2.5c-2.84,0.08 -5.67,0.03 -8.51,0.03l-81.19,0c-3.88,0 -3.88,0 -3.88,3.65c-0.02,2.37 0.03,4.77 -0.02,7.14c-0.14,6.61 -5.4,11.48 -12.47,11.52c-3.78,0.02 -7.57,0 -11.35,0c-7.96,-0.02 -13.17,-4.69 -13.33,-12.16c-0.1,-5.63 -0.07,-11.28 0,-16.93c0.03,-1.72 -0.55,-2.98 -1.83,-4.22c-6.68,-6.53 -10.15,-14.36 -10.17,-23.43c-0.03,-37.58 0,-75.18 -0.02,-112.78c-0.02,-17.74 8.82,-30.01 26.25,-36.91c11.09,-4.4 22.78,-6.26 34.69,-7.32c14.99,-1.32 30.02,-1.8 45.03,-1.42c17.19,0.43 34.42,0.96 51.18,5.15c9.48,2.39 18.47,5.83 25.7,12.32c8,7.12 11.47,16.13 11.59,26.17c0.22,19.33 0.07,38.67 0.07,57.98l0.02,0Z" style="fill:#fff;fill-rule:nonzero;"/><path d="M10672.1,392.85l0,442.12c0,27.29 -22.16,49.45 -49.45,49.45l-327.63,0c-27.29,0 -49.45,-22.16 -49.45,-49.45l0,-442.12c0,-27.29 22.16,-49.45 49.45,-49.45l327.63,0c27.29,0 49.45,22.16 49.45,49.45Z" style="fill:#ffb300;"/><path d="M10356.89,646.45c4.53,-15.48 7.61,-31.3 11.43,-46.94c4.07,-16.82 8.03,-33.68 11.85,-50.58c0.85,-3.66 2.34,-5.18 6.36,-5.14c16.73,0.23 33.49,0.25 50.24,0.02c4.46,-0.06 5.63,1.52 5.61,5.74c-0.17,23.06 -0.06,46.11 -0.1,69.17c-0.02,7.1 -3.29,10.66 -10.43,10.7c-7.7,0.04 -6.65,0.56 -6.67,7.15c-0.02,21.54 0,43.08 -0.02,64.62c0,7.81 -1.11,8.88 -8.88,8.88c-16.46,0.02 -32.89,-0.08 -49.35,0.08c-4.05,0.04 -7.4,-0.86 -10.05,-3.99l0,-59.71Z" style="fill:#fff;fill-rule:nonzero;"/><path d="M10560.79,706.17c-2.65,3.11 -5.99,4.03 -10.05,3.99c-16.77,-0.17 -33.54,-0.06 -50.3,-0.08c-6.55,0 -7.92,-1.29 -7.93,-7.96c-0.04,-22.29 -0.1,-44.6 0.08,-66.91c0.02,-4.12 -0.83,-5.89 -5.42,-5.83c-8.3,0.1 -11.78,-3.74 -11.78,-11.93c-0.02,-22.46 -0.02,-44.92 0,-67.38c0,-6.14 0.02,-6.16 6.34,-6.16c16.45,-0.02 32.93,0.12 49.35,-0.1c3.96,-0.06 5.53,1.34 6.4,5.08c7.15,30.81 14.45,61.59 21.73,92.38c0.4,1.75 1.04,3.45 1.58,5.18l0,59.71Z" style="fill:#fff;fill-rule:nonzero;"/><path d="M10518.2,506.22c0.1,8.86 0.15,17.72 0.31,26.57c0.02,2.44 -0.94,3.57 -3.46,3.57c-12.05,-0.04 -24.09,-0.04 -36.14,0c-2.5,0.02 -3.53,-1.15 -3.52,-3.55c0.08,-8.86 0.13,-17.72 0.21,-26.59l42.59,0Z" style="fill:#fff;fill-rule:nonzero;"/><path d="M10442.06,506.22c0.08,8.71 0.12,17.42 0.25,26.13c0.04,2.82 -1.06,4.07 -3.98,4.05c-10.39,-0.1 -20.77,-0.13 -31.16,0.02c-3.4,0.04 -4.03,-1.75 -4.03,-4.51c0.02,-8.55 -0.02,-17.13 -0.02,-25.68l38.94,0Z" style="fill:#fff;fill-rule:nonzero;"/><path d="M10467.62,580.44c0,10.4 -0.13,20.77 0.06,31.15c0.08,3.93 -1.31,5.31 -5.26,5.22c-14.5,-0.33 -12.22,1.84 -12.31,-12.03c-0.13,-18.36 0.1,-36.73 -0.13,-55.09c-0.04,-4.55 1.38,-5.97 5.97,-5.87c11.68,0.21 11.68,0.02 11.68,11.8l0,24.82Z" style="fill:#fff;fill-rule:nonzero;"/><path d="M10672.1,2646.4l0,442.12c0,27.29 -22.16,49.45 -49.45,49.45l-327.63,0c-27.29,0 -49.45,-22.16 -49.45,-49.45l0,-442.12c0,-27.29 22.16,-49.45 49.45,-49.45l327.63,0c27.29,0 49.45,22.16 49.45,49.45Z" style="fill:#ffb300;"/><path d="M10531.28,2951.72l-70.76,-180.29l-128.71,50.48l70.76,180.29l128.71,-50.48Z" style="fill:#fff;stroke:#ffb300;stroke-width:1px;"/><path d="M10504.02,2798.21l-112.04,143.58l85.45,66.48l112.04,-143.58l-85.45,-66.48Z" style="fill:#fff;stroke:#ffb300;stroke-width:1.88px;stroke-linejoin:miter;stroke-miterlimit:10;"/><path d="M5567.98,1171l0,428.12c0,27.29 -22.16,49.45 -49.45,49.45l-327.63,0c-27.29,0 -49.45,-22.16 -49.45,-49.45l0,-428.12c0,-27.29 22.16,-49.45 49.45,-49.45l327.63,0c27.29,0 49.45,22.16 49.45,49.45Z" style="fill:#10755a;"/><path d="M5412.81,1385.9c0.07,-5.35 -4.19,-9.66 -9.57,-9.68c-5.22,-0.02 -9.54,4.15 -9.67,9.35c-0.15,5.23 4.19,9.76 9.48,9.88c5.26,0.1 9.71,-4.22 9.76,-9.56m-88.01,-0.19c-0.07,-5.28 -4.48,-9.56 -9.79,-9.47c-5.27,0.07 -9.47,4.31 -9.48,9.54c0,5.3 4.38,9.69 9.66,9.66c5.26,-0.02 9.69,-4.49 9.62,-9.73m34.93,-86.26c6.2,0 12.41,0.02 18.61,-0.02c3.11,-0.02 4.91,-1.36 5.46,-3.88c0.72,-3.41 -1.56,-6.02 -5.46,-6.04c-12.08,-0.03 -24.16,-0.02 -36.24,0c-0.98,0.02 -1.98,0.14 -2.9,0.38c-2.77,0.77 -4.21,3.79 -3.14,6.42c0.98,2.38 2.92,3.14 5.31,3.14l18.37,0Zm-43.92,154.02l87.66,0c-3.76,-6.45 -7.3,-12.66 -10.98,-18.77c-0.33,-0.55 -1.51,-0.82 -2.29,-0.82c-20.41,-0.05 -40.82,-0.07 -61.24,0.03c-0.95,0 -2.27,0.82 -2.78,1.66c-2.47,3.91 -4.71,7.98 -7.03,12.01c-1.08,1.87 -2.13,3.76 -3.35,5.88m96.89,-144.41l-47.89,0l0,47.73l47.89,0l0,-47.73Zm-119.11,182.82l131.93,0c-0.46,-0.93 -0.81,-1.63 -1.19,-2.3c-2.8,-4.87 -5.69,-9.69 -8.38,-14.63c-0.91,-1.65 -1.96,-2.18 -3.83,-2.18c-33.78,0.05 -67.56,0.15 -101.32,-0.07c-4.66,-0.03 -7.42,1.01 -9.4,5.37c-2.13,4.68 -5.07,9.02 -7.8,13.81m13.49,-135.12l47.85,0l0,-47.76l-47.85,0l0,47.76Zm151.56,173.75l-10.77,0c-3.11,-5.46 -6.31,-10.83 -9.24,-16.35c-1.13,-2.14 -2.42,-2.9 -4.9,-2.9c-48.92,0.07 -97.82,0.09 -146.72,-0.03c-3.56,0 -5.58,0.94 -7.15,4.15c-2.54,5.18 -5.57,10.1 -8.37,15.13l-11.27,0c18.56,-32.08 37.11,-64.2 55.79,-96.48c-2.84,-0.21 -5.22,-0.1 -7.51,-0.6c-6.92,-1.46 -11.15,-7.22 -11.15,-14.91c-0.02,-37.9 -0.02,-75.79 -0.02,-113.69c0,-3.65 -0.05,-7.33 0.05,-11c0.19,-5.83 3.85,-10.79 9.33,-12.83c0.84,-0.33 1.67,-0.62 2.51,-0.94l101.41,0c0.43,0.19 0.88,0.39 1.32,0.53c6.41,1.99 10.46,7.29 10.46,14.03c0.03,41.57 0.03,83.12 0,124.67c0,8.25 -6.05,14.27 -14.33,14.51c-1.53,0.05 -3.04,0.02 -4.95,0.02c0.67,1.18 1.07,1.96 1.49,2.71c17.61,30.45 35.22,60.9 52.84,91.35c0.46,0.84 0.79,1.75 1.17,2.62" style="fill:#fff;fill-rule:nonzero;"/><path d="M10672.1,1171l0,428.12c0,27.29 -22.16,49.45 -49.45,49.45l-327.63,0c-27.29,0 -49.45,-22.16 -49.45,-49.45l0,-428.12c0,-27.29 22.16,-49.45 49.45,-49.45l327.63,0c27.29,0 49.45,22.16 49.45,49.45Z" style="fill:#ffb300;"/><path d="M10438.48,1275.84c5.88,2.51 10.46,6.41 13.55,12.1c0.64,1.2 2.3,1.82 3.48,2.71c3.4,2.62 4.24,6.02 1.79,9.41c-1.54,2.16 -2.02,4.25 -1.79,6.87c0.34,4.07 -0.46,4.74 -4.62,4.76c-4.85,0.03 -9.71,0.13 -14.55,-0.02c-3.83,-0.15 -4.94,2.02 -5.19,5.26c-0.38,4.72 0.85,7.31 4.42,7.59c5.44,0.43 10.94,0.52 16.38,0.31c3.89,-0.15 5.75,1.13 6.14,5.05c0.36,3.51 1.66,6.02 6.13,6.15c3.76,0.1 5.96,3.69 5.55,7.48c-0.26,2.49 -1.41,4.2 -4.14,4.41c-0.99,0.07 -1.99,0.15 -2.97,0.15c-21.77,0 -43.51,0 -65.26,-0.02c-5.34,0 -6.83,-1.07 -7.1,-4.99c-0.23,-3.59 2.46,-6.71 6.46,-7.41c5.68,-1 5.42,-1.03 6,-6.77c0.76,-7.51 1.87,-14.97 3.06,-22.44c0.3,-1.95 0.02,-3.18 -1.51,-4.53c-4.44,-3.94 -3.79,-9.41 1.53,-12.1c2.37,-1.21 3.88,-2.8 5.19,-5.02c1.92,-3.25 4.75,-5.71 8.23,-7.3c1.02,-0.48 2.15,-0.66 2.83,-1.67l16.41,0Z" style="fill:#fff;fill-rule:nonzero;"/><path d="M10430.56,1527.9c-19.12,0 -38.26,0 -57.4,-0.02c-5.59,0 -7.9,-1.85 -8.11,-6.43c-0.25,-4.46 2.89,-7.56 8,-7.94c7.67,-0.54 7.74,-0.74 8.02,-8.46c0.28,-7.56 2.28,-14.91 2.63,-22.49c0.16,-3.36 1.97,-5.97 5.24,-7.99c25.51,-15.73 50.87,-31.72 76.29,-47.6c4.24,-2.62 5.42,-2.26 5.72,2.76c0.74,12.74 3.02,25.31 4.42,37.95c0.8,7.48 1.71,14.99 2.91,22.45c1.05,6.46 1.31,13.02 2.56,19.52c0.57,3.03 1.63,4.02 4.5,3.85c3.83,-0.23 7.41,0.25 9.86,3.85c2.71,4.03 0.26,9.82 -4.62,10.43c-1.59,0.2 -3.22,0.08 -4.85,0.08c-18.38,0.02 -36.76,0.02 -55.16,0.02" style="fill:#fff;fill-rule:nonzero;"/><path d="M10430.44,1359.9c9.08,0 18.14,0.07 27.22,-0.03c3.02,-0.05 5.14,1.2 5.13,4.1c-0.08,8 2.32,15.68 2.63,23.62c0.13,3.23 -0.8,5.41 -3.6,7.1c-9.08,5.56 -18.05,11.3 -27.1,16.91c-13.67,8.55 -27.35,17.04 -41.05,25.54c-1.1,0.67 -2.28,2.15 -3.63,1.1c-1.33,-1.03 -0.62,-2.74 -0.41,-4.18c1.12,-7.71 2.45,-15.38 3.24,-23.13c0.89,-8.87 2.35,-17.66 3.27,-26.52c0.71,-6.89 1.69,-13.74 2.6,-20.62c0.41,-3.08 1.63,-3.97 4.52,-3.94c9.07,0.11 18.14,0.05 27.2,0.05" style="fill:#fff;fill-rule:nonzero;"/><path d="M10552.59,1318.83c-0.26,4.33 0.51,9.68 -0.43,14.96c-0.72,4.05 -2.43,5.26 -6.59,5.58c-5.17,0.39 -10.14,-1.13 -15.03,-2.12c-9.33,-1.89 -18.76,-3.17 -28.11,-5.1c-12.22,-2.51 -24.59,-4.35 -36.91,-6.38c-4.04,-0.67 -7.59,-3.89 -7.64,-7.36c-0.05,-3.33 3.17,-6.87 7.03,-7.54c12.17,-2.13 24.39,-4.13 36.58,-6.31c9.36,-1.69 18.64,-3.79 28.06,-5.25c4.39,-0.69 8.76,-1.54 13.11,-2.38c6.26,-1.16 9.74,1.89 9.91,8.27c0.1,4.22 0.02,8.45 0.02,13.65" style="fill:#fff;fill-rule:nonzero;"/><path d="M5567.98,1930.74l0,409.41c0,27.29 -22.16,49.45 -49.45,49.45l-327.63,0c-27.29,0 -49.45,-22.16 -49.45,-49.45l0,-409.41c0,-27.29 22.16,-49.45 49.45,-49.45l327.63,0c27.29,0 49.45,22.16 49.45,49.45Z" style="fill:#10755a;"/><path d="M5290.93,2115.03c8.41,-2.48 16.4,-4.8 24.38,-7.17c13.1,-3.9 26.18,-10.89 39.25,-10.86c13.32,0.03 26.6,6.98 39.91,10.91c7.95,2.33 15.9,4.65 24.06,7.03l0,-38.17l-127.6,0l0,38.26Zm96.13,-87.27l0,28.96c10.21,0 19.95,-0.03 29.67,0.01c15.02,0.06 23.55,7.89 23.61,21.7c0.05,14.27 0,28.55 0,43.06c4.22,1.34 8.21,2.57 12.17,3.84c8.14,2.61 10.41,6.51 8.25,14.05c-0.27,1 -0.5,2 -0.82,2.98c-6.25,20.19 -12.52,40.36 -18.99,61.21c-17.71,0.4 -31.03,-7.69 -43.36,-18.98c-11.8,10.93 -25.13,19.1 -42.47,19.17c-17.42,0.06 -30.9,-7.8 -43.01,-19.2c-12.04,11.02 -25.4,19.22 -43.43,19.16c-6.86,-22.27 -13.74,-44.17 -20.36,-66.13c-1.65,-5.49 1.31,-9.83 7.55,-11.93c4.33,-1.5 8.78,-2.7 13.4,-4.11c0,-14.6 -0.02,-28.87 0.02,-43.15c0.05,-13.8 8.59,-21.61 23.61,-21.67c9.73,-0.04 19.48,-0.01 29.83,-0.01l0,-28.96l64.32,0Z" style="fill:#fff;fill-rule:nonzero;"/><path d="M5461.17,2242.73c-21.4,1.11 -41.92,0.44 -61.22,-8.26c-1.6,-0.72 -4.3,-0.26 -6.11,0.47c-26.12,10.5 -52.13,10.49 -78.23,-0.06c-1.92,-0.79 -4.89,-0.95 -6.72,-0.13c-19.1,8.63 -39.41,8.96 -60.5,8l0,-19.32c5.92,0 11.87,-0.13 17.8,0.01c14.88,0.37 28.66,-3.14 41.19,-10.36c3.55,-2.05 5.95,-1.82 9.5,0.06c25.31,13.28 50.71,13.12 76.14,0.07c2,-1.03 5.5,-1.97 6.97,-1.07c16.44,9.84 34.61,12.24 53.68,11.3c2.42,-0.13 4.81,-0.01 7.49,-0.01l0,19.31Z" style="fill:#fff;fill-rule:nonzero;"/><path d="M10672.1,1930.74l0,409.41c0,27.29 -22.16,49.45 -49.45,49.45l-327.63,0c-27.29,0 -49.45,-22.16 -49.45,-49.45l0,-409.41c0,-27.29 22.16,-49.45 49.45,-49.45l327.63,0c27.29,0 49.45,22.16 49.45,49.45Z" style="fill:#ffb300;"/><path d="M10445.77,2125.92c0,3.47 -0.03,6.92 0.02,10.39c0.03,2.26 0.85,3.07 3.09,3.09c6.65,0.03 13.29,0.05 19.95,0c2.5,-0.02 3.42,-0.99 3.42,-3.52c0.02,-6.42 0.05,-12.86 -0.02,-19.27c-0.05,-7.3 -5.82,-12.96 -13.12,-13.03c-7.42,-0.05 -13.21,5.59 -13.33,13.03c-0.05,3.11 0,6.21 -0.02,9.32m10.49,-99.13l4.67,0c2.92,1.2 4.64,3.35 5.14,6.47c0.28,1.6 -0.61,3.52 0.54,4.72c1.23,1.27 3.25,0.38 4.88,0.59c4.03,0.49 7.07,3.76 6.95,7.53c-0.14,3.99 -3.35,7.04 -7.52,7.15c-1.04,0.02 -2.12,0 -3.16,0.02c-1.06,0 -1.51,0.54 -1.6,1.54c-0.21,2.64 0.23,4.77 2.33,6.84c31.31,31.09 62.54,62.28 93.79,93.46c0.8,0.8 1.63,1.56 2.36,2.43c4.14,4.94 2.52,12.42 -3.23,15.34c-2.87,1.46 -5.93,1.13 -8.93,1.16c-3.08,0.03 -3.09,0.03 -3.09,3.09c0,19.01 0,38.03 0.02,57.02c0,0.85 0.02,1.7 -0.02,2.55c-0.17,4.53 -3.04,7.37 -7.58,7.37c-17.9,0.02 -35.81,-0.03 -53.71,0.03c-2.21,0.02 -2.76,-0.73 -2.75,-2.81c0.09,-9.82 0.03,-19.64 0.05,-29.46c0,-1.98 -0.12,-3.94 -0.35,-5.92c-1.58,-12.2 -12.74,-22.26 -25.04,-22.5c-15.39,-0.29 -27.38,11.4 -27.4,26.75c-0.02,10.46 -0.02,20.92 0,31.38c0.02,1.51 -0.14,2.55 -2.12,2.55c-18.45,-0.05 -36.94,-0.02 -55.41,-0.07c-3.34,0 -5.89,-2.31 -6.46,-5.64c-0.24,-1.3 -0.33,-2.65 -0.33,-3.99c-0.03,-18.51 -0.03,-37.04 -0.03,-55.55c0,-0.78 -0.07,-1.56 0,-2.32c0.16,-1.8 -0.56,-2.62 -2.43,-2.52c-1.69,0.1 -3.41,0.05 -5.11,-0.02c-5.54,-0.19 -10.56,-4.58 -9.99,-10.81c0.28,-3.09 1.79,-5.36 3.91,-7.48c31.66,-31.57 63.25,-63.17 94.98,-94.67c2.14,-2.13 2.21,-4.49 1.58,-6.78c-0.54,-2.01 -2.83,-0.66 -4.31,-1.01c-0.33,-0.07 -0.71,0 -1.04,-0.05c-4.41,-0.47 -7.4,-4.75 -6.29,-9.04c0.92,-3.68 3.87,-5.59 8.65,-5.62c3.2,-0.03 3.34,-0.03 3.18,-3.14c-0.21,-3.97 1.27,-6.84 4.87,-8.6" style="fill:#fff;fill-rule:nonzero;"/><circle cx="14053.92" cy="613.91" r="270.51" style="fill:#ed1c24;"/><path d="M13998.76,496.4l109.57,0l-14.85,-28.7l-0.03,0c0,0 -2.73,-5.25 -9.32,-5.25l-61.42,0c-2.86,0 -5.12,0.76 -6.92,1.99c-2.32,1.58 -4.01,3.92 -5.2,6.39c-2.1,4.22 -7.98,17.17 -11.83,25.58m106.66,14.58c-5.89,0 -10.65,4.76 -10.65,10.64c0,5.88 4.77,10.61 10.65,10.61c5.89,0 10.65,-4.73 10.65,-10.61c0,-5.88 -4.77,-10.64 -10.65,-10.64m-104.8,0c-5.86,0 -10.63,4.76 -10.63,10.64c0,5.88 4.77,10.61 10.63,10.61c5.89,0 10.65,-4.73 10.65,-10.61c0,-5.88 -4.77,-10.64 -10.65,-10.64m132.74,-0.41l0,39.89l-17.96,0l0,19.81c0,5.17 -4.22,9.41 -9.37,9.41c-5.2,0 -9.43,-4.24 -9.43,-9.41l0,-19.81l-86.19,0l0,19.81c0,5.17 -4.25,9.41 -9.4,9.41c-5.18,0 -9.43,-4.24 -9.43,-9.41l0,-19.81l-16.95,0l0,-39.89c0,-7.81 6.4,-14.18 14.2,-14.18l0.38,0c3.57,-7.92 11.64,-25.6 13.52,-29.38c1.8,-3.73 4.44,-7.32 8.18,-9.82c3.19,-2.18 7.09,-3.51 11.83,-3.51l61.42,0c11.91,0 17.09,9.96 17.11,9.99l0,0.03l16.92,32.7l1.01,0c7.79,0 14.17,6.37 14.17,14.18Z" style="fill:#fff;"/><path d="M14014.54,753.12c-3.6,-3.56 -8.53,-5.77 -14.01,-5.77c-5.45,0 -10.41,2.2 -13.98,5.77c-3.6,3.59 -5.8,8.52 -5.8,13.98c0,5.47 2.21,10.39 5.8,13.96c3.57,3.59 8.53,5.8 13.98,5.8c5.48,0 10.41,-2.2 14.01,-5.8c3.57,-3.56 5.8,-8.49 5.8,-13.96c0,-5.47 -2.23,-10.39 -5.8,-13.98m-14.01,-18.88c9.1,0 17.33,3.65 23.3,9.6c5.97,5.96 9.65,14.2 9.65,23.26c0,9.09 -3.68,17.28 -9.65,23.24c-5.97,5.96 -14.2,9.66 -23.3,9.66c-9.1,0 -17.3,-3.7 -23.27,-9.66c-5.97,-5.96 -9.65,-14.15 -9.65,-23.24c0,-9.06 3.68,-17.3 9.65,-23.26c5.97,-5.96 14.17,-9.6 23.27,-9.6" style="fill:#fff;"/><path d="M14121.28,753.12c-3.57,-3.56 -8.5,-5.77 -14.01,-5.77c-5.45,0 -10.41,2.2 -13.98,5.77c-3.57,3.59 -5.78,8.52 -5.78,13.98c0,5.47 2.21,10.39 5.78,13.96c3.57,3.59 8.53,5.8 13.98,5.8c5.5,0 10.44,-2.2 14.01,-5.8c3.6,-3.56 5.8,-8.49 5.8,-13.96c0,-5.47 -2.21,-10.39 -5.8,-13.98m-14.01,-18.88c9.1,0 17.33,3.65 23.3,9.6c5.97,5.96 9.65,14.2 9.65,23.26c0,9.09 -3.68,17.28 -9.65,23.24c-5.97,5.96 -14.2,9.66 -23.3,9.66c-9.1,0 -17.3,-3.7 -23.27,-9.66c-5.97,-5.96 -9.65,-14.15 -9.65,-23.24c0,-9.06 3.68,-17.3 9.65,-23.26c5.97,-5.96 14.17,-9.6 23.27,-9.6" style="fill:#fff;"/><path d="M14012.12,731.73c-3.62,0 -6.54,-2.94 -6.54,-6.56c0,-3.62 2.92,-6.56 6.54,-6.56l22.92,0l-0.19,-13.2c-0.03,-2.18 1.01,-4.11 2.64,-5.31l0,-0.03l9.54,-7.07c2.7,-1.99 6.4,-1.61 8.64,0.73l27.06,28.16c0.35,0.33 0.68,0.73 0.95,1.17c1.96,3.05 1.09,7.07 -1.96,9.06l-27.14,17.33l12.32,15.1c2.29,2.8 1.85,6.91 -0.93,9.2c-2.83,2.29 -6.95,1.85 -9.24,-0.95l-16.98,-20.76c-2.29,-2.78 -1.88,-6.94 0.95,-9.2c0.19,-0.16 0.38,-0.33 0.57,-0.44l17.47,-11.18l-10.63,-12.24l0.08,5.47c0.03,0.24 0.03,0.46 0.03,0.71c0,3.62 -2.92,6.56 -6.54,6.56l-29.57,0Z" style="fill:#fff;"/><path d="M14033.06,697.32l18.48,-13.96c0,0 -7.19,-14.91 -15.31,-14.31c-8.09,0.57 -12.59,6.26 -12.59,10.56c0,4.27 1.83,7.59 1.83,7.59l5.8,-5.58l3.65,3.84l-4.82,6.28l2.97,5.58Z" style="fill:#fff;"/><path d="M14228.77,757.43l-318.37,-318.37c40.36,-33.25 90.54,-51.33 143.51,-51.33c60.42,0 117.22,23.53 159.94,66.25c42.72,42.72 66.25,99.52 66.25,159.94c0,52.97 -18.09,103.15 -51.33,143.51Zm-334.79,16.43c-42.72,-42.72 -66.25,-99.52 -66.25,-159.94c0,-52.97 18.09,-103.15 51.33,-143.51l318.37,318.37c-40.36,33.25 -90.54,51.33 -143.51,51.33c-60.42,0 -117.22,-23.53 -159.94,-66.25Zm351.22,-351.22c-51.09,-51.09 -119.03,-79.23 -191.28,-79.23c-72.26,0 -140.19,28.14 -191.28,79.23c-51.09,51.09 -79.23,119.03 -79.23,191.28c0,72.26 28.14,140.19 79.23,191.28c51.09,51.09 119.02,79.23 191.28,79.23c72.26,0 140.19,-28.14 191.28,-79.23c51.09,-51.09 79.23,-119.02 79.23,-191.28c0,-72.26 -28.14,-140.19 -79.23,-191.28Z" style="fill:#fff;stroke:#ed1c24;stroke-width:19.17px;"/><circle cx="14047.19" cy="1390.24" r="270.51" style="fill:#ed1c24;"/><path d="M13945.22,1489.27c-7.26,-16 -11.31,-33.77 -11.31,-52.48c0,-32.56 12.09,-62.16 32.19,-86.87c2.72,-3.35 8.11,-1.29 7.99,3.02c-0.47,17.75 9.17,31.15 25.96,35.45c-10.87,-10.74 -6.68,-29.97 2.33,-42.39c9.01,-12.43 21.89,-21.9 28.84,-35.65c8.11,-16.06 6.12,-36.76 -4.29,-51.25c-1.9,-2.64 -0.43,-6.38 2.76,-7.01c29.91,-5.87 62.62,8.02 81,33.18c6.4,8.75 11.08,18.64 14.09,29.08l-22.3,22.3c-1,3.86 -2.22,7.65 -3.66,11.36c-3.4,8.78 -7.56,19.82 -1.2,26.66c6.63,7.13 19.49,1.7 23.2,-7.38c2.7,-6.62 2.12,-13.91 0.64,-21.06c-0.74,-3.57 2.86,-6.48 6.2,-5c22.87,10.14 37.6,34.31 37.6,61.39c0,70.2 -56.91,127.11 -127.11,127.11c-35.52,0 -67.64,-14.57 -90.7,-38.06c-0.74,-0.76 -1.48,-1.53 -2.21,-2.3c-0.01,-0.03 -0.03,-0.06 -0.04,-0.09Z" style="fill:#fff;"/><path d="M14222.05,1533.75l-318.37,-318.37c40.36,-33.25 90.54,-51.33 143.51,-51.33c60.42,0 117.22,23.53 159.94,66.25c42.72,42.72 66.25,99.52 66.25,159.94c0,52.97 -18.09,103.15 -51.33,143.51Zm-334.79,16.43c-42.72,-42.72 -66.25,-99.52 -66.25,-159.94c0,-52.97 18.09,-103.15 51.33,-143.51l318.37,318.37c-40.36,33.25 -90.54,51.33 -143.51,51.33c-60.42,0 -117.22,-23.53 -159.94,-66.25Zm351.22,-351.22c-51.09,-51.09 -119.03,-79.23 -191.28,-79.23c-72.26,0 -140.19,28.14 -191.28,79.23c-51.09,51.09 -79.23,119.03 -79.23,191.28c0,72.26 28.14,140.19 79.23,191.28c51.09,51.09 119.02,79.23 191.28,79.23c72.26,0 140.19,-28.14 191.28,-79.23c51.09,-51.09 79.23,-119.02 79.23,-191.28c0,-72.26 -28.14,-140.19 -79.23,-191.28Z" style="fill:#fff;fill-rule:nonzero;stroke:#ed1c24;stroke-width:19.17px;"/><path d="M12610.49,1400.99c-0.08,-0.08 -0.16,-0.17 -0.24,-0.25l0.08,-0.08c0.05,0.11 0.1,0.22 0.15,0.34Z" style="fill:#f04b4a;fill-rule:nonzero;"/><circle cx="14049.59" cy="2151.8" r="270.51" style="fill:#ed1c24;"/><path d="M13950.51,2147.99l0.01,0c-3.12,4.53 10.24,-13.87 17.89,-23.65c3.81,-4.86 7.62,-9.74 11.31,-14.22c1.86,-2.24 3.65,-4.4 5.34,-6.45c1.67,-2.09 3.25,-4.06 4.7,-5.89c2.91,-3.64 3.95,-5.39 1.19,-2.69c-1.35,1.4 -2.92,2.71 -4.56,4.16c-1.66,1.43 -3.39,2.93 -5.2,4.5c-3.65,3.09 -7.55,6.33 -11.6,9.45c-8.22,6.07 -16.38,12.23 -22.99,16.02c-3.26,1.97 -6.07,3.48 -8,4.59c-1.94,1.09 -3.06,1.66 -3.09,1.67l-14.86,10.82c0,0 5.67,19.02 29.85,1.69Z" style="fill:#fff;fill-rule:nonzero;"/><path d="M13991.67,2099.13c-2.45,3.97 -5.54,8.44 -9.04,13.12c-3.44,4.72 -7.24,9.66 -11.01,14.62c-3.87,4.86 -7.74,9.72 -11.47,14.18c-3.76,4.44 -7.27,8.58 -10.29,12.14c-3.01,3.55 -5.66,6.4 -7.46,8.44c-1.81,2.01 -2.9,3.13 -2.92,3.14c-5.28,8.52 -8.26,14.44 -7.3,15.36c22.49,21.5 72.23,-52.24 80.92,-56.86c8.71,-4.61 109.62,1.03 109.1,6.67c-0.51,5.63 -27.66,11.26 -49.17,18.43c-21.51,7.17 -29.2,27.65 -21,32.27c8.2,4.62 11.31,1.17 67.1,-11.72c76.05,-17.57 72.22,-96.87 72.22,-96.87c-34.31,30.23 -133.66,9.8 -151.09,9.74c-16.96,-0.05 -33,-2.89 -40.47,4.09c0,0 -0.77,1.38 -2.17,3.7c-1.45,2.3 -3.42,5.66 -5.95,9.57Z" style="fill:#fff;fill-rule:nonzero;"/><path d="M13943.95,2128.35c0.44,-0.36 0.87,-0.71 1.34,-1.09c1.5,-1.17 3.12,-2.45 4.83,-3.81c1.7,-1.38 3.47,-2.84 5.3,-4.35c3.67,-3 7.68,-6.08 11.68,-9.15c4.06,-3.02 7.98,-6.22 11.82,-9.02c1.93,-1.41 3.78,-2.77 5.54,-4.05c1.75,-1.31 3.51,-2.43 4.98,-3.59c2.99,-2.29 5.63,-4.09 7.43,-5.42c1.81,-1.3 -67.77,30.52 -71.37,30c0,0 0.42,13.62 18.44,10.48Z" style="fill:#fff;fill-rule:nonzero;"/><path d="M13984.02,2194.49c0,15.22 12.34,27.56 27.56,27.56c15.22,0 27.56,-12.34 27.56,-27.56c0,-15.22 -12.34,-27.56 -27.56,-27.56c-15.21,0 -27.56,12.34 -27.56,27.56Z" style="fill:#fff;fill-rule:nonzero;"/><path d="M14046.57,2231.9c0,9.16 7.43,16.58 16.59,16.58c9.15,0 16.58,-7.42 16.58,-16.58c0,-9.16 -7.43,-16.58 -16.58,-16.58c-9.16,0 -16.59,7.42 -16.59,16.58Z" style="fill:#fff;fill-rule:nonzero;"/><path d="M14013.55,2257.25c0,4.85 3.93,8.77 8.76,8.77c4.86,0 8.78,-3.93 8.78,-8.77c0,-4.84 -3.92,-8.77 -8.78,-8.77c-4.83,0 -8.76,3.93 -8.76,8.77Z" style="fill:#fff;fill-rule:nonzero;"/><path d="M14230.88,2300.48l-318.37,-318.37c40.36,-33.25 90.54,-51.33 143.51,-51.33c60.42,0 117.22,23.53 159.94,66.25c42.72,42.72 66.25,99.52 66.25,159.94c0,52.97 -18.09,103.15 -51.33,143.51Zm-334.79,16.43c-42.72,-42.72 -66.25,-99.52 -66.25,-159.94c0,-52.97 18.09,-103.15 51.33,-143.51l318.37,318.37c-40.36,33.25 -90.54,51.33 -143.51,51.33c-60.42,0 -117.22,-23.53 -159.94,-66.25Zm351.22,-351.22c-51.09,-51.09 -119.03,-79.23 -191.28,-79.23c-72.26,0 -140.19,28.14 -191.28,79.23c-51.09,51.09 -79.23,119.03 -79.23,191.28c0,72.26 28.14,140.19 79.23,191.28c51.09,51.09 119.02,79.23 191.28,79.23c72.26,0 140.19,-28.14 191.28,-79.23c51.09,-51.09 79.23,-119.02 79.23,-191.28c0,-72.26 -28.14,-140.19 -79.23,-191.28Z" style="fill:#fff;fill-rule:nonzero;stroke:#ed1c24;stroke-width:19.17px;"/><circle cx="14046.3" cy="2867.89" r="270.51" style="fill:#ed1c24;"/><path d="M13928.19,2959.24l122.55,0l8.14,-230.76l-130.69,230.76Z" style="fill:#fff;fill-rule:nonzero;"/><path d="M14189.3,2959.24l-122.55,0l-8.14,-230.76l130.69,230.76Z" style="fill:#fff;fill-rule:nonzero;"/><path d="M13898.68,2965.37l-2.16,-2.28l162.1,-237.35l1.07,1.64c59.21,90.44 149.37,226.41 155.08,230.26c-0.26,-0.19 -0.96,-0.23 -1.44,0.47l2.16,2.26l-1.18,0.68c-4.62,-0.05 -99.05,-143.22 -155.75,-229.82l-159.9,234.14Z" style="fill:#fff;fill-rule:nonzero;"/><path d="M14226.67,3015.25l-318.37,-318.37c40.36,-33.25 90.54,-51.33 143.51,-51.33c60.42,0 117.22,23.53 159.94,66.25c42.72,42.72 66.25,99.52 66.25,159.94c0,52.97 -18.09,103.15 -51.33,143.51Zm-334.79,16.43c-42.72,-42.72 -66.25,-99.52 -66.25,-159.94c0,-52.97 18.09,-103.15 51.33,-143.51l318.37,318.37c-40.36,33.25 -90.54,51.33 -143.51,51.33c-60.42,0 -117.22,-23.53 -159.94,-66.25Zm351.22,-351.22c-51.09,-51.09 -119.03,-79.23 -191.28,-79.23c-72.26,0 -140.19,28.14 -191.28,79.23c-51.09,51.09 -79.23,119.03 -79.23,191.28c0,72.26 28.14,140.19 79.23,191.28c51.09,51.09 119.02,79.23 191.28,79.23c72.26,0 140.19,-28.14 191.28,-79.23c51.09,-51.09 79.23,-119.02 79.23,-191.28c0,-72.26 -28.14,-140.19 -79.23,-191.28Z" style="fill:#fff;fill-rule:nonzero;stroke:#ed1c24;stroke-width:19.17px;"/></g></svg>